<svg width="134" height="218" viewBox="0 0 134 218" fill="none" xmlns="http://www.w3.org/2000/svg">
<g clipPath="url(#clip0_36_722)">
<path d="M118.867 20.2682C109.84 18.2196 103.153 6.10873 103.153 6.10873C101.958 3.07499 98.4658 0.397103 94.638 1.04044C91.443 1.57722 90.6201 4.69942 90.6201 4.69942C90.614 4.70746 90.6099 4.7155 90.6039 4.72355C90.0377 5.40508 89.5544 6.33792 89.3744 7.62057C89.2612 8.42474 89.1965 9.14649 89.1803 9.79183C87.6031 13.0548 88.145 23.0928 91.6554 28.8969C95.6773 35.5454 113.181 49.6747 122.211 46.1424C131.242 42.6081 127.893 22.3168 118.867 20.2682Z" fill="#1E1240"/>
<path d="M88.8103 22.9199C83.8178 20.053 69.4265 29.4638 53.3286 54.5479C52.2832 56.1764 51.345 57.7606 50.5543 59.2785C42.1829 56.1342 24.3278 49.6103 22.6232 57.9134C19.7437 71.9542 47.1855 77.6357 60.1229 74.4472C76.8658 70.3218 100.91 29.8679 88.8103 22.9199Z" fill="#FFE6E6"/>
<path d="M87.7891 75.0482C86.2584 72.7081 78.0548 72.2799 77.1064 74.9075C64.0498 111.127 66.6421 138.142 65.9667 155.678C64.715 188.249 65.2428 226.464 71.9117 226.132C78.5805 225.8 84.6286 228.902 86.1249 222.825C89.7546 208.092 93.542 169.846 94.4782 157.182C94.8038 152.777 104.888 101.208 102.757 96.8473C101.295 93.8538 92.903 82.8688 87.7871 75.0482H87.7891Z" fill="#2E88BF"/>
<path d="M95.2951 151.835C95.8108 148.785 96.5246 144.714 97.3132 140.156C88.6121 139.927 69.7581 139.328 68.6379 138.435C68.6379 138.435 73.4565 150.693 95.2972 151.835H95.2951Z" fill="#311E69"/>
<path d="M126.441 95.7577C125.271 84.2239 119.625 79.3345 115.7 71.4255C102.449 73.9285 86.7498 69.3447 79.8322 66.9382C78.0588 73.062 90.9699 112.533 90.9699 112.533L118.484 223.47C119.024 225.645 120.933 227.196 123.162 227.262C127.078 227.378 132.789 227.477 133.907 227.093C134.872 226.763 128.019 111.318 126.441 95.7577Z" fill="#4CB4D4"/>
<path d="M127.459 227.354C130.387 227.388 133.163 227.346 133.907 227.093C134.669 226.831 130.542 154.546 128.002 116.642C125.703 115.709 123.333 115.379 120.919 115.852C101.782 119.607 118.402 140.136 119.601 155.908C120.802 171.679 123.437 183.696 122.12 194.462C121.139 202.477 125.281 219.288 127.459 227.354Z" fill="#2E88BF"/>
<path d="M129.962 147.528C129.828 145.317 129.693 143.125 129.559 140.966L101.649 144.935C101.649 144.935 121.768 147.854 129.96 147.528H129.962Z" fill="#311E69"/>
<path d="M73.4404 62.849C73.2543 60.6637 72.4576 54.8415 72.7448 51.4459C73.1269 46.9365 75.5413 37.8835 75.5413 37.8835L81.0454 52.4531C78.625 56.1342 76.0044 59.6987 73.4404 62.8511V62.849Z" fill="#3D4166"/>
<path d="M131.871 143.614C134.963 143.186 128.85 94.0708 125.137 78.0538C121.938 64.2502 118.547 41.6087 114.442 30.7042C109.885 18.5933 89.5706 19.7252 84.3253 22.5036C77.9537 25.8791 74.6981 36.7596 74.8599 45.8065C74.9852 52.7545 75.2542 60.173 75.0257 62.8469C74.8983 64.3406 60.0986 121.672 65.4268 134.814C70.0149 146.131 112.572 146.282 131.869 143.612L131.871 143.614Z" fill="white"/>
<path d="M125.137 78.0539C121.938 64.2503 118.547 41.6088 114.442 30.7043C112.044 24.3352 105.288 21.6292 98.6599 20.8994C100.36 25.8672 114.685 68.627 112.554 93.89C110.938 113.019 110.859 134.336 110.946 145.017C118.873 144.913 126.332 144.38 131.873 143.614C134.965 143.186 128.852 94.071 125.139 78.0539H125.137Z" fill="#FFE6E6"/>
<path d="M92.0193 21.9728C92.0193 21.9728 99.032 21.3335 101.384 23.1932C105.939 26.7938 89.7101 38.6835 89.7101 38.6835C89.7101 38.6835 85.6275 25.0709 92.0193 21.9728Z" fill="#2E88BF"/>
<path d="M98.6619 14.082L99.0542 23.2616C99.1128 24.7735 95.4852 28.7702 93.0284 26.9267C92.3085 26.3879 93.1679 24.2829 93.7846 22.6927L95.3558 14.7515L98.6619 14.082Z" fill="#F2C0AF"/>
<path d="M94.4236 19.4699C97.7156 18.5331 98.2454 15.6079 98.2454 15.6079L95.1334 15.8853L94.4256 19.4699H94.4236Z" fill="#311E69"/>
<path d="M98.85 8.28383L99.6507 11.7639C100.286 14.5222 98.6862 17.4132 95.926 18.1007C93.3782 18.736 90.7818 17.4313 90.1712 14.2146C89.6292 11.3558 91.5138 8.72612 92.167 7.37109C93.6552 4.28106 97.6347 4.34942 98.85 8.28383Z" fill="#F2C0AF"/>
<path d="M95.7744 13.4708C95.7744 13.4708 94.3245 13.6899 92.3449 13.2617C92.3449 13.2617 92.7089 14.7313 93.4591 15.2541C94.2093 15.7768 95.1597 14.9766 95.7764 13.4708H95.7744Z" fill="white"/>
<path d="M95.5317 16.9771C94.4721 17.0836 92.5592 16.7961 91.7383 16.2071C91.0103 15.6844 90.3026 14.3535 90.1489 14.0559C90.157 14.1082 90.161 14.1605 90.1712 14.2127C90.7798 17.4274 93.3762 18.7342 95.926 18.0989C97.6286 17.6747 98.8864 16.4141 99.4526 14.8621C98.1038 16.3116 96.4841 16.8806 95.5317 16.975V16.9771Z" fill="#D8A79A"/>
<path d="M92.8039 4.21483C92.4076 4.89436 92.5188 5.75683 93.0203 6.36599C94.3569 7.99041 97.8147 11.8846 99.8994 11.4222C102.524 10.8392 101.45 6.14484 98.3869 4.08616C96.3284 2.70299 93.8332 2.4537 92.8059 4.21483H92.8039Z" fill="#1E1240"/>
<path d="M104.763 30.8911C104.763 30.8911 103.054 29.4215 101.078 56.707C100.763 61.0696 94.4782 65.0925 94.4782 65.0925C94.4782 65.0925 85.3687 66.735 92.3247 68.1845C99.2807 69.6341 108.23 69.9356 108.216 66.0274C108.202 62.1191 108.657 62.9112 108.884 54.5478C109.11 46.1844 104.763 30.8911 104.763 30.8911Z" fill="#3D4166"/>
<path d="M119.601 71.2627C119.601 71.2627 114.683 76.8738 112.4 78.2771C107.749 81.1359 101.776 81.1359 92.4763 79.7085C84.9238 78.5485 75.697 73.4842 72.9712 71.7995C72.7529 72.7524 72.5203 73.7677 72.2797 74.8332C75.2036 76.3772 80.5136 78.9968 83.0251 80.4604C87.411 83.0157 100.263 87.2255 109.713 84.2943C119.162 81.3631 119.599 71.2647 119.599 71.2647L119.601 71.2627Z" fill="#3D4166"/>
<path d="M80.4469 57.5716L34.9155 53.9648L8.24811 58.8261L52.3823 62.3222L80.9929 57.9133C80.8817 57.7243 80.6815 57.5896 80.4449 57.5716H80.4469Z" fill="#4B5266"/>
<path d="M52.3823 62.3221L53.6057 65.9349C53.6057 65.9349 53.6764 65.9228 53.7897 65.9007C55.9756 65.4886 76.7991 61.4798 80.3761 60.7922C80.6855 60.7319 80.914 60.4766 80.9403 60.165L81.0879 58.3214C81.1 58.1746 81.0637 58.0339 80.9929 57.9153L52.3823 62.3242V62.3221Z" fill="black"/>
<path d="M50.9628 61.0355L74.1461 58.0259L48.9528 56.0295L50.9628 61.0355Z" fill="black"/>
<path d="M52.3823 62.3221L8.24811 58.826L0.0303312 22.5357C-0.153679 21.7215 0.507545 20.9636 1.34469 21.0299L42.8785 24.321C43.4224 24.3632 43.8754 24.7532 43.9947 25.284L52.3823 62.3221Z" fill="#4B5266"/>
<path d="M27.3346 40.6497C27.6865 42.2541 26.8595 43.7961 25.4864 44.0936C24.1134 44.3911 22.7162 43.3316 22.3643 41.7273C22.0125 40.123 22.8395 38.581 24.2125 38.2835C25.5855 37.9859 26.9828 39.0454 27.3346 40.6497Z" fill="#EBEBEB"/>
<path d="M8.24811 58.824L10.1003 61.6285C10.5452 62.304 11.2792 62.7363 12.0901 62.8006L52.1093 65.9711C52.6088 66.0113 53.1082 65.9972 53.6036 65.9349L52.3803 62.3221L8.24609 58.826L8.24811 58.824Z" fill="black"/>
<path d="M61.9023 58.9224C59.9469 58.3052 57.8905 59.4994 55.6823 59.1516C53.4762 58.8038 53.5753 60.3539 55.1303 61.0756C55.741 61.3591 56.3153 61.4073 56.8248 61.3993C55.927 62.6538 51.6827 65.7036 51.6827 65.7036C51.6827 65.7036 51.9213 66.1359 55.1303 66.0353C58.3414 65.9348 61.8255 65.5468 63.1054 63.9385C63.9102 62.9272 63.8577 59.5376 61.9023 58.9204V58.9224Z" fill="#EFAEA6"/>
<path d="M109.903 26.0763C102.979 25.3063 103.709 38.1972 104.534 50.5432C105.359 62.8893 99.4586 66.1602 92.6098 64.8515C88.3452 64.0352 63.5523 55.0285 61.4291 61.0739C61.1905 61.7534 60.6041 66.4497 61.8073 67.8329C69.3173 76.4697 101.369 91.8033 115.118 78.3917C127.93 65.8949 121.202 27.3308 109.901 26.0763H109.903Z" fill="white"/>
<path d="M117.008 32.4915C118.887 39.0154 121.006 50.7181 116.293 61.0356C109.304 76.3289 98.7287 79.427 90.893 77.8307C83.66 76.357 67.3377 64.4091 61.0793 64.3488C61.0672 65.7319 61.231 67.1674 61.8113 67.8328C69.3214 76.4696 101.374 91.8032 115.122 78.3916C124.876 68.8762 123.303 44.2545 117.01 32.4895L117.008 32.4915Z" fill="#FFE6E6"/>
</g>
<defs>
<clipPath id="clip0_36_722">
<rect width="134" height="239.056" fill="white" transform="translate(0 0.943848)"/>
</clipPath>
</defs>
</svg>
