<svg width="18" height="16" viewBox="0 0 18 16" fill="none" xmlns="http://www.w3.org/2000/svg">
<path d="M17.8433 14.185L9.9752 0.561064C9.54395 -0.187021 8.45262 -0.187021 8.02138 0.561064L0.153284 14.185C-0.277965 14.9331 0.250095 15.8836 1.12139 15.8836H16.8576C17.7465 15.8836 18.2833 14.9331 17.8433 14.185ZM8.75186 4.73274C9.22711 4.61832 9.70237 4.84715 9.92239 5.2872C10.0016 5.44562 10.0192 5.62164 10.0016 5.78006C9.9664 6.27291 9.93999 6.76577 9.92239 7.28503C9.88719 8.05951 9.82558 8.8428 9.78158 9.61729C9.76397 9.85492 9.76397 10.0925 9.74637 10.3478C9.72877 10.7614 9.41193 11.0783 8.99829 11.0783C8.58464 11.0783 8.2678 10.7614 8.2502 10.3654C8.18859 9.15964 8.10939 7.9539 8.05658 6.74817C8.03898 6.43133 8.02138 6.09689 7.99497 5.78006C7.99497 5.3048 8.31181 4.84715 8.76946 4.73274H8.75186ZM9.00709 13.789C8.45262 13.789 8.02138 13.3313 8.02138 12.7768C8.02138 12.2224 8.47903 11.7647 9.03349 11.7647C9.58795 11.7647 10.0192 12.2224 10.0192 12.7945C10.0016 13.3313 9.54395 13.7802 9.00709 13.7802V13.789Z" fill="#EA4335"/>
</svg>
