<svg width="20" height="20" viewBox="0 0 20 20" fill="none" xmlns="http://www.w3.org/2000/svg">
<path d="M9.99574 20C12.6482 20 15.1898 18.9424 17.0661 17.0746C18.9424 15.1983 19.9915 12.6567 19.9915 10.0043C19.9915 7.35181 18.9339 4.81023 17.0661 2.9339C15.1983 1.05757 12.6482 0 9.99574 0C7.34328 0 4.80171 1.05757 2.92537 2.92537C1.05757 4.80171 0 7.34328 0 9.99574C0 12.6482 1.05757 15.1898 2.9339 17.0661C4.81024 18.9424 7.35181 19.9915 10.0043 20H9.99574ZM9.99574 1.53518C12.2388 1.53518 14.3881 2.4307 15.9744 4.01706C17.5608 5.60341 18.4563 7.75267 18.4563 9.99574C18.4563 12.2388 17.5608 14.3881 15.9744 15.9744C14.3881 17.5608 12.2388 18.4563 9.99574 18.4563C7.75267 18.4563 5.60341 17.5608 4.01706 15.9744C2.4307 14.3881 1.53518 12.2388 1.53518 9.99574C1.53518 7.75267 2.4307 5.60341 4.01706 4.01706C5.60341 2.4307 7.75267 1.53518 9.99574 1.53518Z" fill="black"/>
<path d="M12.5287 13.6204C12.7248 13.8081 13.0063 13.8848 13.2621 13.8081C13.5265 13.7398 13.7312 13.5351 13.7995 13.2708C13.8677 13.0064 13.7995 12.7249 13.6118 12.5373L10.7632 9.68866V3.84645C10.7632 3.57353 10.6182 3.31766 10.3794 3.1812C10.1406 3.04474 9.85063 3.04474 9.61182 3.1812C9.37302 3.31766 9.22803 3.57353 9.22803 3.84645V10.0042C9.22803 10.2089 9.31332 10.4051 9.44978 10.5501L12.5287 13.629V13.6204Z" fill="black"/>
</svg>
