<svg width="38" height="37" viewBox="0 0 38 37" fill="none" xmlns="http://www.w3.org/2000/svg">
<path d="M19.39 18.4999L37.9192 0.45929C38.0269 0.354223 38.0269 0.184423 37.9192 0.0793557C37.8115 -0.0257113 37.6374 -0.0257113 37.5296 0.0793557L18.9999 18.1205L0.470135 0.0788577C0.362401 -0.0262092 0.18778 -0.0257113 0.0805564 0.0788577C-0.0271777 0.183925 -0.0266671 0.354223 0.0805564 0.458792L18.6098 18.4999L0.0805564 36.5411C-0.0271777 36.6461 -0.0271777 36.8159 0.0805564 36.921C0.134168 36.9738 0.20514 36.9997 0.275601 36.9997C0.346062 36.9997 0.416523 36.9733 0.470135 36.921L18.9999 18.8799L37.5296 36.9215C37.5832 36.9738 37.6537 37.0002 37.7242 37.0002C37.7946 37.0002 37.8656 36.9738 37.9192 36.9215C38.0269 36.8164 38.0264 36.6461 37.9192 36.5416L19.39 18.4999Z" fill="black"/>
</svg>
