<svg width="44" height="94" viewBox="0 0 44 94" fill="none" xmlns="http://www.w3.org/2000/svg">
<g clip-path="url(#clip0_71_1822)">
<path d="M30.5411 4.05946C31.9119 2.99913 43.1056 10.165 42.5411 14.7278C41.7703 20.9616 26.5786 14.5556 25.1121 13.0991C23.6475 11.6425 25.1121 8.15341 25.1121 8.15341L35.2068 11.1526C35.2068 11.1526 29.0221 5.23272 30.5392 4.05946H30.5411Z" fill="#F2C0AF"/>
<path d="M42.7699 89.1634L42.3705 86.9853L41.9166 87.4313L38.393 80.6425C37.9129 79.7161 35.3456 79.1573 32.9284 79.452L27.6081 80.1009C23.4975 80.6023 19.1637 80.8052 14.8449 80.6999L9.25466 80.5621C6.71551 80.499 4.60393 81.2779 4.76145 82.2196L6.1473 90.53C6.45672 92.3846 10.4999 93.8507 15.5088 93.9253L19.7938 93.9885C23.8332 94.0478 27.8726 93.8603 31.745 93.4277L35.8519 92.9703C40.3489 92.4688 43.205 90.863 42.7699 89.1634Z" fill="#BAC9DB"/>
<path d="M43.9569 87.9193L43.5575 85.7413L43.1036 86.1872L39.58 79.3984C39.0999 78.4721 36.5326 77.9132 34.1154 78.2079L28.7952 78.8568C24.6845 79.3582 20.3507 79.5611 16.0319 79.4558L10.4417 79.318C7.90252 79.2549 5.79094 80.0339 5.94847 80.9755L7.33431 89.2859C7.64373 91.1405 11.6869 92.6066 16.6958 92.6813L20.9808 92.7444C25.0202 92.8057 29.0596 92.6162 32.9321 92.1836L37.0389 91.7262C41.5359 91.2247 44.392 89.6189 43.9569 87.9193Z" fill="#EDC5C5"/>
<path d="M20.557 90.4592L16.2719 90.396C11.263 90.3214 7.21803 88.8553 6.91048 87.0007L5.52464 78.6903C5.36711 77.7486 7.47869 76.9716 10.0178 77.0328L15.6081 77.1706C19.9269 77.2778 24.2607 77.0749 28.3713 76.5716L33.6915 75.9227C36.1088 75.628 38.6761 76.1869 39.1561 77.1132L43.3999 85.2896C44.347 87.1136 41.4159 88.907 36.6151 89.4429L32.5082 89.9003C28.6357 90.331 24.5964 90.5205 20.557 90.4611V90.4592Z" fill="#FDE4E4"/>
<path d="M43.4018 85.2896L39.158 77.1132C38.7304 76.2883 36.6489 75.7543 34.4904 75.8557C34.2241 75.8691 33.9578 75.8902 33.6915 75.9227L28.3713 76.5715C26.316 76.8223 24.2044 76.9983 22.0666 77.0998C19.9288 77.2012 17.7666 77.2242 15.6062 77.1706L10.016 77.0328C9.73655 77.0251 9.46463 77.029 9.19834 77.0424C7.04175 77.1438 5.38399 77.852 5.52276 78.6903L6.90861 87.0007C7.21803 88.8553 11.2612 90.3214 16.2701 90.396L20.5551 90.4592C22.5748 90.4898 24.5945 90.4573 26.5936 90.3635C28.5926 90.2697 30.5692 90.1147 32.5064 89.8984L36.6132 89.441C41.414 88.907 44.3451 87.1117 43.3981 85.2877L43.4018 85.2896ZM40.6039 87.4983C39.5818 88.1242 37.9803 88.5835 36.0919 88.794L31.985 89.2515C30.1547 89.4563 28.2644 89.6036 26.3685 89.6936C24.4726 89.7816 22.5429 89.8123 20.632 89.7855L16.347 89.7223C14.376 89.6936 12.5157 89.395 11.1055 88.884C9.69717 88.373 8.85328 87.6897 8.73139 86.9605L7.34555 78.6501C7.26866 78.1831 8.18193 77.7735 9.429 77.7142C9.58277 77.7065 9.7403 77.7046 9.89595 77.7084L15.4862 77.8462C17.7515 77.9017 20.0432 77.8768 22.2973 77.7716C24.5495 77.6663 26.7867 77.4787 28.9433 77.2146L34.2635 76.5658C34.4135 76.5467 34.5673 76.5352 34.7192 76.5275C35.9644 76.4682 37.1271 76.7821 37.3652 77.2414L41.609 85.4178C41.9822 86.1356 41.624 86.8743 40.602 87.5002L40.6039 87.4983Z" fill="white"/>
<path d="M39.3361 83.0388C39.8837 83.7718 39.5631 84.5623 38.4604 85.1308C37.459 85.6456 35.865 86.1987 33.6053 86.2236C30.9573 86.2523 31.9156 84.8322 32.2438 83.7833C32.5026 82.9546 32.2269 81.6474 32.0469 81.5287C29.9259 80.1411 30.5879 78.6214 33.3821 78.4913C34.3272 78.4472 35.0567 79.119 35.4993 79.653C35.6925 79.8865 38.271 81.6091 39.338 83.0388H39.3361Z" fill="#FDDADA"/>
<path d="M9.33342 84.4455C9.29779 85.2073 10.1398 85.9422 11.5875 86.3901C12.904 86.7978 14.8186 87.1844 17.024 87.0006C19.6081 86.7844 17.7254 85.4982 16.7033 84.5125C15.8969 83.7335 15.2837 82.4416 15.3794 82.3114C16.4989 80.7707 14.8374 79.362 12.0432 79.4922C11.0981 79.5362 10.843 80.2559 10.7718 80.8128C10.7399 81.0559 9.4028 82.9641 9.33154 84.4474L9.33342 84.4455Z" fill="#FDDADA"/>
<path d="M29.3315 86.6791C26.7604 86.9126 24.1125 87.0447 21.4646 87.0523C20.15 87.0562 19.143 87.4868 19.308 87.971L19.4918 88.5088C19.6306 88.9146 20.5551 89.2208 21.6559 89.2228C24.6695 89.2285 27.6943 89.0945 30.6067 88.8093C31.6737 88.7041 32.3713 88.3232 32.2325 87.9174L32.045 87.3681C31.88 86.8839 30.6123 86.5624 29.3315 86.6791Z" fill="#2E88BF"/>
<mask id="mask0_71_1822" style="mask-type:luminance" maskUnits="userSpaceOnUse" x="19" y="86" width="14" height="4">
<path d="M29.3315 86.6791C26.7604 86.9126 24.1125 87.0447 21.4646 87.0523C20.15 87.0562 19.143 87.4868 19.308 87.971L19.4918 88.5088C19.6306 88.9146 20.5551 89.2208 21.6559 89.2228C24.6695 89.2285 27.6943 89.0945 30.6067 88.8093C31.6737 88.7041 32.3713 88.3232 32.2325 87.9174L32.045 87.3681C31.88 86.8839 30.6123 86.5624 29.3315 86.6791Z" fill="white"/>
</mask>
<g mask="url(#mask0_71_1822)">
<path d="M20.6282 87.2303C20.9357 88.2179 23.3474 88.9261 26.0122 88.8112C28.6769 88.6964 30.5879 87.8045 30.2803 86.8169C29.9728 85.8293 27.5611 85.1211 24.8964 85.236C22.2316 85.3508 20.3206 86.2427 20.6282 87.2303Z" fill="white"/>
<path d="M28.9394 86.637C28.9563 86.6561 29.0125 86.6676 29.0669 86.6619L29.8002 86.5815C29.8545 86.5757 29.8845 86.5547 29.8695 86.5336C29.8527 86.5145 29.7964 86.503 29.742 86.5087L29.0088 86.5891C28.9544 86.5949 28.9244 86.6159 28.9394 86.637Z" fill="#2E88BF"/>
<path d="M29.0896 87.0083C29.0896 87.0293 29.1365 87.0466 29.1927 87.0466L29.9579 87.0427C30.0141 87.0427 30.0591 87.0255 30.0591 87.0045C30.0591 86.9834 30.0122 86.9662 29.956 86.9662L29.1909 86.97C29.1346 86.97 29.0896 86.9872 29.0896 87.0083Z" fill="#2E88BF"/>
<path d="M28.96 87.3796C28.945 87.3987 28.9769 87.4198 29.0313 87.4255L29.7683 87.5002C29.8226 87.5059 29.8789 87.4944 29.8939 87.4734C29.9089 87.4523 29.877 87.4332 29.8226 87.4274L29.0857 87.3528C29.0313 87.347 28.975 87.3585 28.96 87.3796Z" fill="#2E88BF"/>
<path d="M28.5589 87.7241C28.5289 87.7414 28.5439 87.7643 28.5927 87.7758L29.2453 87.9232C29.294 87.9347 29.3559 87.9289 29.3859 87.9098C29.4159 87.8926 29.4009 87.8696 29.3522 87.8581L28.6996 87.7107C28.6508 87.6992 28.5889 87.705 28.5589 87.7241Z" fill="#2E88BF"/>
<path d="M27.9155 88.015C27.8742 88.0284 27.8705 88.0533 27.9099 88.0686L28.4274 88.2772C28.4649 88.2926 28.5306 88.2945 28.5718 88.2792C28.6131 88.2638 28.6168 88.2409 28.5775 88.2256L28.0599 88.0169C28.0224 88.0016 27.9567 87.9997 27.9155 88.015Z" fill="#2E88BF"/>
<path d="M27.083 88.2274C27.0324 88.237 27.0118 88.26 27.038 88.2772L27.3812 88.5298C27.4056 88.549 27.4675 88.5567 27.5181 88.5471C27.5687 88.5375 27.5894 88.5145 27.5631 88.4973L27.2199 88.2447C27.1956 88.2255 27.1337 88.2179 27.083 88.2274Z" fill="#2E88BF"/>
<path d="M26.1247 88.3461C26.0684 88.3499 26.0328 88.3691 26.0441 88.3901L26.1847 88.6677C26.196 88.6887 26.2485 88.7021 26.3029 88.6983C26.3572 88.6944 26.3947 88.6753 26.3835 88.6543L26.2428 88.3767C26.2316 88.3557 26.1791 88.3423 26.1247 88.3461Z" fill="#2E88BF"/>
<path d="M25.1121 88.3634C25.0558 88.3615 25.0071 88.3768 25.0015 88.3978L24.9302 88.6792C24.9246 88.7002 24.9658 88.7175 25.0221 88.7213C25.0783 88.7232 25.1271 88.7079 25.1327 88.6868L25.204 88.4055C25.2096 88.3844 25.1684 88.3672 25.1121 88.3634Z" fill="#2E88BF"/>
<path d="M24.1275 88.2772C24.0749 88.2696 24.0168 88.2792 23.9962 88.2983L23.7168 88.5624C23.6961 88.5816 23.7224 88.6045 23.7749 88.6122C23.8274 88.6198 23.8855 88.6103 23.9062 88.5911L24.1856 88.327C24.2062 88.3079 24.18 88.2849 24.1275 88.2772Z" fill="#2E88BF"/>
<path d="M23.246 88.0935C23.201 88.0801 23.1372 88.0839 23.1035 88.1012L22.6384 88.327C22.6047 88.3442 22.6122 88.3672 22.6572 88.3806C22.7022 88.394 22.7659 88.3902 22.7997 88.3729L23.2648 88.1471C23.2985 88.1299 23.291 88.1069 23.246 88.0935Z" fill="#2E88BF"/>
<path d="M22.5354 87.8255C22.5017 87.8083 22.4379 87.8045 22.3929 87.8179L21.7797 87.9863C21.7347 87.9997 21.7253 88.0227 21.7591 88.0399C21.7928 88.0571 21.8566 88.0609 21.9016 88.0475L22.5148 87.8791C22.5598 87.8676 22.5692 87.8428 22.5354 87.8255Z" fill="#2E88BF"/>
<path d="M22.0516 87.4964C22.031 87.4772 21.9729 87.4677 21.9204 87.4734L21.204 87.5729C21.1515 87.5806 21.1252 87.6016 21.144 87.6208C21.1646 87.6399 21.2227 87.6495 21.2753 87.6437L21.9916 87.5442C22.0441 87.5366 22.0704 87.5155 22.0516 87.4964Z" fill="#2E88BF"/>
<path d="M21.8303 87.1308C21.8265 87.1097 21.7759 87.0944 21.7196 87.0964L20.9583 87.1193C20.902 87.1193 20.8607 87.1385 20.8645 87.1595C20.8682 87.1806 20.9189 87.1959 20.9751 87.194L21.7365 87.171C21.7928 87.171 21.834 87.1519 21.8303 87.1308Z" fill="#2E88BF"/>
</g>
<path d="M25.6111 89.1501L25.6355 88.5223L25.6692 87.6514L26.2881 88.4917L26.7344 89.0984C26.3612 89.1175 25.9861 89.1347 25.6111 89.1501Z" fill="#F2C0AF"/>
<path d="M35.1336 82.0186C35.1336 82.0186 37.7103 83.0311 38.4979 83.5192C39.2611 83.9919 37.3239 85.0178 37.6465 85.3202C37.969 85.6207 37.7665 86.0016 37.2283 86.2179C36.6901 86.4341 35.925 85.8657 35.3249 85.7815C34.7248 85.6973 32.7201 84.279 31.9212 83.9594C31.1242 83.6417 30.3966 83.5689 30.8354 81.7564C31.2742 79.9439 30.2935 78.4549 31.3943 78.2003C32.4951 77.9457 33.3221 78.363 33.5771 79.3257C33.8303 80.2884 34.8317 81.9191 35.1317 82.0186H35.1336Z" fill="#F2C0AF"/>
<path d="M13.6804 82.0186C13.6804 82.0186 11.4882 82.8186 10.7006 83.3067C9.93734 83.7794 11.4882 85.0178 11.1657 85.3183C10.8431 85.6187 11.0456 85.9996 11.5838 86.2159C12.1221 86.4322 12.8872 85.8637 13.4873 85.7795C14.0874 85.6953 16.0921 84.2771 16.8909 83.9574C17.6879 83.6397 18.4155 83.567 17.9767 81.7545C17.5379 79.942 18.5187 78.4529 17.4179 78.1983C16.3171 77.9438 15.4901 78.361 15.235 79.3238C14.9819 80.2865 13.9805 81.9172 13.6804 82.0167V82.0186Z" fill="#F2C0AF"/>
<path d="M14.8956 9.41854C14.8956 9.41854 8.85531 18.8505 10.5862 22.1253C12.3171 25.4001 19.4882 25.5513 21.8361 21.5951C24.1821 17.6371 22.8 3.78578 21.9936 2.30246C21.1872 0.819148 15.3232 6.22032 14.8975 9.41854H14.8956Z" fill="#FFCC50"/>
<path d="M20.3751 0.815351C20.3751 0.815351 22.0609 0.771331 22.2991 3.29201C22.5373 5.81268 22.0778 6.81751 22.2316 7.55055C22.3854 8.28551 15.7618 10.9938 14.7623 10.9249C13.7628 10.856 14.8279 9.56021 14.8279 9.56021C14.8279 9.56021 16.27 5.98877 16.6113 5.1696C16.9508 4.35234 18.7511 1.11393 20.3769 0.811523L20.3751 0.815351Z" fill="#FFCC50"/>
<path d="M33.8209 77.9878C33.8209 77.9878 34.0891 80.1946 34.5148 81.2817C34.6461 81.6186 31.2668 82.7191 31.0736 81.9746C30.7061 80.5563 29.9709 78.0644 29.9709 78.0644C29.9709 78.0644 32.662 77.2682 33.819 77.9897L33.8209 77.9878Z" fill="#F2C0AF"/>
<path d="M14.8054 78.3879C14.8054 78.3879 15.036 79.454 14.6347 80.8607C14.5353 81.209 17.8884 82.1009 17.8959 81.3315C17.909 80.1181 18.1078 78.4013 18.1078 78.4013C18.1078 78.4013 15.9624 77.6682 14.8054 78.3879Z" fill="#F2C0AF"/>
<path d="M30.7005 19.0036C29.1215 15.3135 27.8444 11.7211 27.7413 10.5861C27.5744 8.74294 25.264 7.8874 24.4164 7.61945C21.4196 6.67204 18.1041 8.08454 14.4248 11.7344C12.512 13.6331 17.5303 17.0782 17.4646 19.0572C17.3803 21.6104 16.9414 21.9703 16.0169 23.5952L15.7131 24.2957C15.7131 24.2957 26.0085 27.7485 32.2851 23.6986C31.9569 22.3435 30.8111 19.262 30.6986 19.0036H30.7005Z" fill="#AA3766"/>
<path d="M32.2851 23.6986C27.4787 25.8077 20.0751 24.5541 16.0151 23.5952C14.3161 25.2106 12.9527 27.8021 11.6907 30.8682C9.71034 35.6761 15.2818 71.9187 14.2898 78.074C14.0554 79.5305 18.423 79.1324 18.423 79.1324C22.1829 61.7441 23.7807 37.234 23.7807 37.234C25.5603 41.3988 28.3226 78.7132 30.3704 79.0329C31.3231 79.1822 34.1454 79.2683 34.0366 78.3515C33.8247 76.5734 35.4975 65.1261 35.3287 52.4634C35.1618 39.9499 33.1553 26.225 32.2832 23.6947L32.2851 23.6986Z" fill="#4CB4D4"/>
<path d="M19.113 4.83273L20.0207 7.8185C20.1726 8.31038 21.7534 9.1774 22.3142 8.30656C22.4773 8.052 21.9729 7.4759 21.6034 7.03569L20.2213 4.67004L19.113 4.83273Z" fill="#F2C0AF"/>
<path d="M21.0409 6.07678C19.9082 6.15142 19.415 5.27483 19.415 5.27483L20.4183 5.00879L21.0428 6.07678H21.0409Z" fill="#D8A79A"/>
<path d="M18.5917 3.03167L18.7793 4.23172C18.9274 5.18296 19.7807 5.89303 20.7146 5.76097C21.5772 5.63848 22.2129 4.89969 21.9991 3.80682C21.8097 2.83645 20.9021 2.24312 20.5327 1.89861C19.6907 1.11198 18.4736 1.6364 18.5917 3.03167Z" fill="#F2C0AF"/>
<path d="M18.9724 4.11688C18.9068 4.03458 18.8524 3.94271 18.8055 3.84701C18.7136 3.6671 18.5373 3.4202 18.3423 3.69007C18.0573 4.08243 18.5936 5.01644 19.068 4.8595C19.4206 4.74274 19.1412 4.32359 18.9724 4.11688Z" fill="#F2C0AF"/>
<path d="M21.2116 2.9896C21.1947 2.88433 21.1609 2.78289 21.1216 2.68337C21.0484 2.4958 20.9809 2.19722 21.3091 2.2221C21.7854 2.25847 22.1267 3.28435 21.6991 3.54847C21.3822 3.7437 21.2547 3.25372 21.2116 2.98768V2.9896Z" fill="#F2C0AF"/>
<path d="M20.4126 4.10733C20.4126 4.10733 20.8852 3.99249 21.4421 3.60779C21.4421 3.60779 21.5134 4.1169 21.3484 4.3772C21.1833 4.6375 20.7914 4.50543 20.4145 4.10733H20.4126Z" fill="white"/>
<path d="M20.6959 5.35524C21.0353 5.25571 21.5885 4.92268 21.7667 4.63176C21.9261 4.37529 21.9767 3.86427 21.988 3.75134C21.9917 3.76857 21.9973 3.78579 22.0011 3.80302C22.2149 4.89589 21.5792 5.63467 20.7165 5.75717C20.1408 5.83947 19.597 5.60022 19.2275 5.18107C19.8239 5.46816 20.3921 5.44328 20.6959 5.35141V5.35524Z" fill="#F2C0AF"/>
<path d="M18.9425 10.9727C18.9425 10.9727 17.8436 9.73055 15.8014 10.6914C13.7592 11.6522 0.444593 18.7797 0.0132756 23.5952C-0.418042 28.4107 10.1849 34.5028 13.2097 33.7411C16.2346 32.9793 6.80746 24.7168 7.16189 23.5952C8.05828 20.7511 22.7287 16.5059 18.9444 10.9727H18.9425Z" fill="#F2C0AF"/>
<path d="M20.3751 0.815321C20.3751 0.815321 20.2682 1.5809 19.6137 2.56085C18.6854 3.95421 18.0403 3.45466 17.4234 4.45183C16.8064 5.449 14.8279 9.56209 14.8279 9.56209C14.8279 9.56209 14.4135 3.62118 16.6732 0.86317C18.241 -1.05078 20.3751 0.815321 20.3751 0.815321Z" fill="#FFE159"/>
<path d="M19.2086 11.4206C18.0516 12.2703 15.323 14.2647 11.5031 16.9997C6.34976 20.6879 3.46931 21.7559 4.5176 24.5886C5.56402 27.4212 10.0066 30.1467 11.5031 31.4022C12.1707 31.9611 12.8533 32.8128 13.6878 33.4482C14.8748 31.7812 6.83359 24.6326 7.16176 23.5933C8.03378 20.8257 21.9391 16.7318 19.2086 11.4186V11.4206Z" fill="#F2C0AF"/>
<path d="M12.6771 32.0051C12.6771 32.0051 13.4741 30.5122 14.2167 30.3897C14.9593 30.2672 16.6621 30.7476 16.422 30.9371C16.182 31.1266 14.6518 30.9716 14.6518 30.9716C14.6518 30.9716 16.2758 31.5898 16.5739 32.0089C16.8721 32.4281 16.2176 33.0023 15.7919 33.0999C15.3662 33.1994 13.4103 34.0607 12.679 33.8176C11.9495 33.5726 12.6733 32.0051 12.6733 32.0051H12.6771Z" fill="#F2C0AF"/>
<path d="M25.1178 2.34649L24.422 1.94073L24.0582 2.59722L23.8726 2.92068L24.5683 3.32644C24.8252 3.47573 25.0427 3.68052 25.1815 3.90636L25.3934 4.24705C25.5322 4.47098 25.7497 4.67577 26.0066 4.82698L31.0643 7.78021C31.3512 7.94672 31.67 7.92758 31.7769 7.73619L32.4952 6.45384C32.602 6.26244 32.4577 5.97152 32.1707 5.80501L27.1131 2.85178C26.8561 2.70249 26.573 2.61445 26.3123 2.60679L25.9166 2.59339C25.656 2.58382 25.3728 2.4977 25.1159 2.34841L25.1178 2.34649Z" fill="#8AC4E3"/>
<path d="M26.3125 2.60665L25.9168 2.59325C25.6561 2.58368 25.373 2.49755 25.116 2.34826L24.4203 1.9425L24.0565 2.59899L23.8708 2.92245L24.5666 3.32821C24.8235 3.4775 25.041 3.68229 25.1798 3.90814L25.3917 4.24882C25.5305 4.47275 25.748 4.67754 26.0049 4.82875L31.0626 7.78198C31.3495 7.94849 31.6683 7.92935 31.7752 7.73796L32.4934 6.45561C32.6003 6.26421 32.4559 5.97329 32.169 5.80678L27.1114 2.85355C26.8544 2.70426 26.5713 2.61622 26.3106 2.60856L26.3125 2.60665ZM32.1353 5.86994C32.3697 6.00583 32.4878 6.24507 32.3997 6.4001L31.6814 7.68245C31.5933 7.8394 31.3326 7.85471 31.0982 7.71882L26.0406 4.76559C25.8062 4.62778 25.6055 4.44021 25.478 4.23542L25.2661 3.89474C25.116 3.65167 24.8798 3.42965 24.6003 3.26696L24.0002 2.91671L24.1503 2.65641L24.4784 2.06308L25.0804 2.41334C25.358 2.57602 25.6655 2.66981 25.9487 2.67938L26.3444 2.69277C26.5825 2.70043 26.8432 2.78082 27.0776 2.91862L32.1353 5.87185V5.86994Z" fill="#BBE2FD"/>
<g style="mix-blend-mode:multiply">
<path d="M32.2646 6.86344L32.4934 6.45577C32.6003 6.26437 32.4559 5.97345 32.1689 5.80694L27.1113 2.85371C26.8544 2.70442 26.5712 2.61638 26.3105 2.60872L25.9148 2.59532C25.6542 2.58575 25.371 2.49963 25.1141 2.35034L24.4184 1.94458L24.1689 2.39627C24.484 2.46518 25.2716 2.78289 25.5623 2.94749C26.0536 3.22693 26.3087 3.07764 26.7681 3.15037C27.3401 3.24224 31.3963 5.80694 31.7995 6.48256C31.9045 6.65865 32.1146 6.76966 32.2646 6.86535V6.86344Z" fill="#E4DAD8"/>
</g>
<path style="mix-blend-mode:color-dodge" d="M24.8816 3.33599C24.8816 3.33599 25.3204 3.77237 25.5023 4.03649C25.6842 4.30062 25.9542 4.58197 26.2112 4.75805C26.4681 4.93222 30.6237 7.49501 30.7081 7.10456C30.7925 6.7122 26.8281 4.46522 26.1268 3.9829C25.4254 3.50059 24.4034 2.82305 24.8816 3.3379V3.33599Z" fill="url(#paint0_linear_71_1822)"/>
<path d="M24.1726 1.79335L23.6213 2.77713C23.6026 2.80966 23.6269 2.85751 23.6757 2.88431L24.2439 3.21542C24.2908 3.24413 24.3452 3.2403 24.3621 3.20777L24.9134 2.22399C24.9303 2.19146 24.9078 2.14361 24.859 2.11681L24.2908 1.7857C24.2439 1.75699 24.1895 1.76082 24.1726 1.79335Z" fill="#BBE2FD"/>
<path d="M30.436 3.9485C30.436 3.9485 29.9522 3.85854 29.7422 3.93319C29.5321 4.00783 29.0727 4.74279 29.2583 4.84614C29.444 4.9495 29.6465 4.43273 29.7984 4.37723C29.7984 4.37723 29.5527 4.96481 29.7084 5.14281C29.864 5.3208 30.1547 5.17152 30.3629 4.97629C30.5729 4.78107 30.661 4.71982 30.661 4.71982C30.661 4.71982 30.316 5.24042 30.2372 5.27296C30.1603 5.30549 30.2372 5.54856 30.5879 5.34951C30.9386 5.15046 31.6418 4.77916 31.6024 4.61456C31.5631 4.45187 30.7773 3.99061 30.436 3.9485Z" fill="#F2C0AF"/>
<path d="M31.7244 59.7249C31.9907 65.0227 32.5495 74.6863 32.8008 79.0731C33.5209 78.9831 34.0891 78.7745 34.0385 78.3553C33.8266 76.5773 35.4994 65.1299 35.3306 52.4672C35.1637 39.9538 33.1571 26.2288 32.2851 23.6985C31.053 24.2383 29.6522 24.5579 28.1782 24.7187C29.0821 27.115 29.7891 29.7543 29.7703 32.1142C29.7197 38.5642 31.3737 52.7734 31.7244 59.7249Z" fill="#4CB4D4"/>
<path d="M16.4538 79.163C17.4552 79.2224 18.4228 79.1343 18.4228 79.1343C22.1828 61.746 23.7805 37.236 23.7805 37.236C23.7805 37.236 19.5743 41.9385 19.563 47.9694C19.5536 53.4146 16.9564 75.0174 16.4519 79.163H16.4538Z" fill="#2E88BF"/>
</g>
<defs>
<linearGradient id="paint0_linear_71_1822" x1="22.8298" y1="1.36232" x2="30.0916" y2="5.00098" gradientUnits="userSpaceOnUse">
<stop stop-color="#4D4D4D"/>
<stop offset="1"/>
</linearGradient>
<clipPath id="clip0_71_1822">
<rect width="44" height="94" fill="white"/>
</clipPath>
</defs>
</svg>
