<svg width="18" height="18" viewBox="0 0 18 18" fill="none" xmlns="http://www.w3.org/2000/svg">
<path d="M16.5601 16.5L11.5601 11.5M13.2267 7.33333C13.2267 8.09938 13.0758 8.85792 12.7827 9.56565C12.4895 10.2734 12.0599 10.9164 11.5182 11.4581C10.9765 11.9998 10.3334 12.4295 9.62571 12.7226C8.91798 13.0158 8.15944 13.1667 7.39339 13.1667C6.62735 13.1667 5.8688 13.0158 5.16107 12.7226C4.45334 12.4295 3.81028 11.9998 3.2686 11.4581C2.72693 10.9164 2.29725 10.2734 2.00409 9.56565C1.71094 8.85792 1.56006 8.09938 1.56006 7.33333C1.56006 5.78624 2.17464 4.30251 3.2686 3.20854C4.36256 2.11458 5.8463 1.5 7.39339 1.5C8.94049 1.5 10.4242 2.11458 11.5182 3.20854C12.6121 4.30251 13.2267 5.78624 13.2267 7.33333Z" stroke="#9CA3AF" stroke-width="2" stroke-linecap="round" stroke-linejoin="round"/>
</svg>
