<svg width="10" height="26" viewBox="0 0 10 26" fill="none" xmlns="http://www.w3.org/2000/svg">
<path fill-rule="evenodd" clip-rule="evenodd" d="M5 22.4391C4.05 22.4391 3.275 21.664 3.275 20.7139C3.275 19.7639 4.05 18.9888 5 18.9888C5.95 18.9888 6.725 19.7639 6.725 20.7139C6.725 21.664 5.95 22.4391 5 22.4391ZM5 18.1263C3.575 18.1263 2.4125 19.2888 2.4125 20.7139C2.4125 22.139 3.575 23.3016 5 23.3016C6.425 23.3016 7.5875 22.139 7.5875 20.7139C7.5875 19.2888 6.425 18.1263 5 18.1263ZM5 24.8517C7.28125 24.8517 9.1375 22.9953 9.1375 20.7139C9.1375 19.0388 8.1375 17.5387 6.59375 16.8949C6.43125 16.8262 6.33125 16.6699 6.33125 16.4949V14.5385H5.55625C5.31875 14.5385 5.125 14.3447 5.125 14.1072C5.125 13.8697 5.31875 13.6759 5.55625 13.6759H6.33125V12.1508H5.55625C5.31875 12.1508 5.125 11.9571 5.125 11.7196C5.125 11.482 5.31875 11.2883 5.55625 11.2883H6.33125V9.76318H5.55625C5.31875 9.76318 5.125 9.56941 5.125 9.3319C5.125 9.09438 5.31875 8.90062 5.55625 8.90062H6.33125V7.37551H5.55625C5.31875 7.37551 5.125 7.18175 5.125 6.94423C5.125 6.70672 5.31875 6.51295 5.55625 6.51295H6.33125V4.98785H5.55625C5.31875 4.98785 5.125 4.79408 5.125 4.55657C5.125 4.31905 5.31875 4.12529 5.55625 4.12529H6.33125V2.18765C6.33125 1.45635 5.7375 0.86256 5.00625 0.86256C4.275 0.86256 3.68125 1.45635 3.68125 2.18765V16.4949C3.68125 16.6699 3.575 16.8262 3.41875 16.8949C1.86875 17.5387 0.875 19.0388 0.875 20.7139C0.875 22.9953 2.73125 24.8517 5.0125 24.8517H5ZM7.1875 16.2199V2.18765C7.1875 0.981318 6.20625 0 5 0C3.79375 0 2.8125 0.981318 2.8125 2.18765V16.2199C1.09375 17.0574 0 18.7888 0 20.7139C0 23.4704 2.24375 25.7143 5 25.7143C7.75625 25.7143 10 23.4704 10 20.7139C10 18.7888 8.90625 17.0512 7.1875 16.2199Z" fill="#FF9400"/>
</svg>
