<svg width="193" height="30" viewBox="0 0 193 30" fill="none" xmlns="http://www.w3.org/2000/svg">
<path d="M34.145 28.7635H27.3372L21.2948 8.82675L15.2524 28.7635H8.4446L0.0255127 0.852051H5.86651L11.9291 22.2641L18.2333 0.852051H24.457L30.7612 22.2641L36.8238 0.852051H42.5641L34.145 28.7635Z" fill="#4C4A96"/>
<path d="M61.3962 28.7638H56.2602V26.6306C54.8201 28.385 52.8764 29.2622 50.4192 29.2622C47.7203 29.2622 45.4745 28.2953 43.6718 26.3515C41.8692 24.4076 40.9729 21.9953 40.9729 19.0945C40.9729 16.1937 41.8692 13.7814 43.6718 11.8375C45.4745 9.89369 47.7203 8.92676 50.4192 8.92676C52.8865 8.92676 54.8402 9.81394 56.2602 11.5783V9.44511H61.3962V28.7638ZM51.386 13.7714C49.8855 13.7714 48.6669 14.2798 47.7404 15.2965C46.8139 16.3133 46.3506 17.5793 46.3506 19.0945C46.3506 20.6097 46.8139 21.8757 47.7404 22.8924C48.6669 23.9092 49.8855 24.4176 51.386 24.4176C52.8865 24.4176 54.0849 23.9192 55.0215 22.9124C55.9581 21.9056 56.4213 20.6396 56.4213 19.0945C56.4213 17.5494 55.9581 16.2834 55.0215 15.2766C54.0849 14.2698 52.8764 13.7714 51.386 13.7714Z" fill="#4C4A96"/>
<path d="M79.4629 14.0702H72.3933V21.1278C72.3933 22.2543 72.6652 23.0916 73.199 23.6199C73.7327 24.1482 74.4377 24.4174 75.3138 24.4174C76.3612 24.4174 77.5797 23.9987 78.9795 23.1614L80.9131 27.2285C78.9393 28.5842 76.7841 29.262 74.4477 29.262C72.1113 29.262 70.208 28.6041 68.9794 27.2983C67.7507 25.9924 67.1364 24.0685 67.1364 21.5465V14.0702H63.37V9.4449H67.1364V3.70312H72.3933V9.4449H79.4629V14.0702Z" fill="#4C4A96"/>
<path d="M91.427 8.92676C93.0685 8.92676 94.5489 9.24574 95.8883 9.87375C97.2277 10.5018 98.3455 11.4089 99.2418 12.5752L95.4553 15.7052C94.2367 14.4193 92.847 13.7714 91.286 13.7714C89.9063 13.7714 88.7381 14.2598 87.8016 15.2467C86.865 16.2336 86.3917 17.5095 86.3917 19.0945C86.3917 20.6795 86.8549 21.9554 87.7915 22.9423C88.7281 23.9292 89.8862 24.4176 91.2659 24.4176C92.8772 24.4176 94.2971 23.7697 95.5157 22.4638L99.262 25.6337C97.3385 28.0561 94.7302 29.2622 91.427 29.2622C88.3353 29.2622 85.8378 28.3053 83.9143 26.3913C81.9908 24.4774 81.0341 22.0451 81.0341 19.0945C81.0341 16.1439 81.9908 13.7116 83.9143 11.7976C85.8378 9.88372 88.3353 8.92676 91.427 8.92676Z" fill="#4C4A96"/>
<path d="M106.694 11.5185C107.943 9.79394 109.806 8.92669 112.293 8.92669C114.519 8.92669 116.342 9.62448 117.762 11.0201C119.182 12.4156 119.887 14.2299 119.887 16.4628V28.7638H114.63V18.1375C114.63 16.7419 114.297 15.6753 113.643 14.9276C112.988 14.18 112.042 13.8112 110.823 13.8112C109.604 13.8112 108.638 14.19 107.862 14.9376C107.087 15.6853 106.694 16.7718 106.694 18.1773V28.7638H101.437V0.0349121H106.694V11.5185Z" fill="#4C4A96"/>
<path d="M135.698 0.852051C140.099 0.852051 143.644 2.128 146.322 4.6799C149.001 7.2318 150.341 10.6111 150.341 14.8078C150.341 19.0045 149.001 22.3837 146.322 24.9356C143.644 27.4875 140.099 28.7635 135.698 28.7635H124.076V0.852051H135.698ZM129.696 6.05554V23.56H135.637C138.508 23.56 140.703 22.7625 142.204 21.1576C143.704 19.5527 144.459 17.4394 144.459 14.8078C144.459 12.1761 143.704 10.023 142.204 8.43798C140.703 6.85301 138.508 6.05554 135.637 6.05554H129.696Z" fill="#00B8E2"/>
<path d="M162.727 8.92676C165.759 8.92676 168.286 9.89369 170.29 11.8275C172.294 13.7614 173.301 16.1837 173.301 19.0945C173.301 22.0053 172.294 24.4276 170.29 26.3614C168.286 28.2953 165.759 29.2622 162.727 29.2622C159.696 29.2622 157.198 28.2953 155.194 26.3614C153.19 24.4276 152.193 22.0053 152.193 19.0945C152.193 16.1837 153.19 13.7614 155.194 11.8275C157.198 9.89369 159.706 8.92676 162.727 8.92676ZM162.727 13.7714C161.237 13.7714 159.998 14.2698 159.021 15.2666C158.044 16.2635 157.551 17.5394 157.551 19.0945C157.551 20.6496 158.044 21.9255 159.021 22.9223C159.998 23.9192 161.237 24.4176 162.727 24.4176C164.218 24.4176 165.477 23.9192 166.453 22.9223C167.43 21.9255 167.924 20.6496 167.924 19.0945C167.924 17.5394 167.43 16.2635 166.453 15.2666C165.477 14.2698 164.228 13.7714 162.727 13.7714Z" fill="#00B8E2"/>
<path d="M185.165 8.92676C186.807 8.92676 188.287 9.24574 189.626 9.87375C190.966 10.5018 192.084 11.4089 192.98 12.5752L189.193 15.7052C187.975 14.4193 186.585 13.7714 185.024 13.7714C183.644 13.7714 182.476 14.2598 181.54 15.2467C180.603 16.2336 180.13 17.5095 180.13 19.0945C180.13 20.6795 180.593 21.9554 181.53 22.9423C182.466 23.9292 183.624 24.4176 185.004 24.4176C186.615 24.4176 188.035 23.7697 189.254 22.4638L193 25.6337C191.077 28.0561 188.468 29.2622 185.165 29.2622C182.073 29.2622 179.576 28.3053 177.652 26.3913C175.729 24.4774 174.772 22.0451 174.772 19.0945C174.772 16.1439 175.729 13.7116 177.652 11.7976C179.576 9.88372 182.073 8.92676 185.165 8.92676Z" fill="#00B8E2"/>
</svg>
