<svg width="14" height="14" viewBox="0 0 14 14" fill="none" xmlns="http://www.w3.org/2000/svg">
<path d="M12.7875 0H1.19416C0.494161 0 -0.0506844 0.576874 -0.000168919 1.25831L0.790037 12.8967C0.82612 13.5277 1.34932 14 1.98076 14H11.8241C12.4555 14 12.9607 13.5277 13.0148 12.9148L13.9962 1.27633C14.0503 0.594901 13.5055 0 12.7875 0ZM8.76066 4.91785C8.35653 4.51404 7.85138 4.28689 7.32457 4.21839L6.97457 1.453L6.62457 4.21839C6.09777 4.28689 5.59261 4.51764 5.18849 4.91785C4.34777 4.0958 3.50705 3.27376 2.68437 2.45171C5.04777 0.122586 8.88334 0.122586 11.2467 2.45171C10.4421 3.27376 9.60138 4.0958 8.76066 4.91785Z" fill="#61C4CA"/>
</svg>
