<svg width="32" height="32" viewBox="0 0 32 32" fill="none" xmlns="http://www.w3.org/2000/svg">
<circle cx="16" cy="16" r="16" fill="white"/>
<path d="M16 21C15.6366 21 15.3421 20.7054 15.3421 20.3421V16.6579H11.6579C11.2946 16.6579 11 16.3633 11 16C11 15.6366 11.2946 15.3421 11.6579 15.3421H15.3421V11.6579C15.3421 11.2946 15.6366 11 16 11C16.3634 11 16.6579 11.2946 16.6579 11.6579V15.3421H20.3421C20.7054 15.3421 21 15.6366 21 16C21 16.3633 20.7054 16.6579 20.3421 16.6579H16.6579V20.3421C16.6579 20.7054 16.3634 21 16 21Z" fill="black"/>
</svg>
