<svg width="16" height="12" viewBox="0 0 16 12" fill="none" xmlns="http://www.w3.org/2000/svg">
<path d="M15.9028 8.77161C15.361 6.61761 14.5017 4.55501 13.3525 2.65085C12.7995 1.73494 12.4507 0.978258 11.3512 0.978258C10.384 0.978258 9.6 1.75773 9.6 2.71921V4.31179L8.778 3.73103C8.72323 3.69232 8.67833 3.63988 8.64728 3.57836C8.61623 3.51685 8.59999 3.44816 8.6 3.37839V0.521737C8.6 0.287526 8.221 0 8 0C7.779 0 7.4 0.287526 7.4 0.521737V3.37839C7.4 3.52014 7.33325 3.65235 7.222 3.73103L6.4 4.31179V2.71921C6.4 1.75773 5.616 0.978258 4.64875 0.978258C3.54925 0.978258 3.2005 1.73494 2.6475 2.65085C1.49825 4.55501 0.639 6.61761 0.09725 8.77161C0.0325 9.02834 0 9.29196 0 9.55664C0 11.1789 1.562 12.3502 3.131 11.9046L4.6185 11.482C5.673 11.1826 6.4 10.2243 6.4 9.13405V6.81605L4.254 8.33233C4.23216 8.34778 4.20765 8.35851 4.18189 8.36392C4.15613 8.36933 4.12962 8.3693 4.10387 8.36383C4.07812 8.35837 4.05364 8.34758 4.03183 8.33208C4.01001 8.31659 3.9913 8.29668 3.97675 8.27351L3.75475 7.92087C3.74017 7.89772 3.73004 7.87176 3.72494 7.84446C3.71984 7.81716 3.71987 7.78906 3.72502 7.76177C3.73018 7.73448 3.74036 7.70853 3.75498 7.68542C3.76961 7.6623 3.78839 7.64247 3.81025 7.62705L8 4.66708L12.1897 7.62705C12.2116 7.64247 12.2304 7.66231 12.245 7.68542C12.2596 7.70854 12.2698 7.73448 12.275 7.76177C12.2801 7.78906 12.2801 7.81715 12.275 7.84445C12.2699 7.87175 12.2598 7.89772 12.2452 7.92087L12.0232 8.27351C12.0087 8.29668 11.99 8.31658 11.9682 8.33207C11.9464 8.34756 11.9219 8.35835 11.8961 8.36381C11.8704 8.36927 11.8439 8.36931 11.8181 8.3639C11.7923 8.3585 11.7678 8.34777 11.746 8.33233L9.6 6.81605V9.13405C9.6 10.2243 10.327 11.1823 11.3815 11.482L12.869 11.9046C14.438 12.3502 16 11.1789 16 9.55664C16 9.29196 15.9675 9.02834 15.9028 8.77161Z" fill="#81CFFA"/>
</svg>
