<svg width="13" height="12" viewBox="0 0 13 12" fill="none" xmlns="http://www.w3.org/2000/svg">
<path d="M4.67651 12C4.44733 12 4.23022 11.9156 4.06738 11.7528L0.279924 7.85151C-0.0819354 7.51987 -0.0939973 6.95307 0.249769 6.59129C0.581473 6.2295 1.14838 6.21744 1.51024 6.56114L4.29053 8.54494C4.44733 8.68965 4.6946 8.6595 4.82728 8.48464L11.4011 0.356492C11.6905 -0.0354438 12.2575 -0.119861 12.6434 0.181628C13.0354 0.471058 13.1199 1.03786 12.8183 1.42376L5.38213 11.6382C5.22533 11.8432 4.99012 11.9699 4.74285 11.9879C4.7127 12 4.70063 12 4.67048 12H4.67651Z" fill="#00B8E2"/>
</svg>
