<svg width="27" height="27" viewBox="0 0 27 27" fill="none" xmlns="http://www.w3.org/2000/svg">
<path d="M27 12.8531C27 12.0082 26.6673 11.1938 26.0664 10.5685C25.4654 9.94312 24.64 9.55204 23.7505 9.47172C22.861 9.3914 21.9718 9.62726 21.2566 10.1337C20.5414 10.6399 20.0516 11.3803 19.8824 12.2099C19.7132 13.0396 19.8777 13.8989 20.3425 14.6202C20.8077 15.3415 21.5404 15.8731 22.3979 16.1109V18.3659C22.4019 19.5436 22.0777 20.7019 21.4572 21.7231C20.8366 22.7446 19.9424 23.5931 18.8645 24.1831C17.7866 24.7733 16.5631 25.0838 15.3177 25.0838C14.0723 25.0838 12.8488 24.773 11.7706 24.1831C10.6927 23.5931 9.79814 22.7446 9.17796 21.7231C8.55779 20.7019 8.2332 19.5436 8.23725 18.3659V16.3327C9.9606 16.1004 11.5377 15.2882 12.6793 14.0455C13.8209 12.8028 14.4505 11.2126 14.4525 9.56639V0.956192C14.4525 0.702483 14.346 0.459291 14.1562 0.280164C13.9672 0.100719 13.71 0 13.442 0H11.3311C10.9694 0 10.6357 0.182314 10.4551 0.478096C10.2744 0.773878 10.2744 1.13851 10.4551 1.43429C10.6357 1.73007 10.9694 1.91238 11.3307 1.91238H12.4302V9.56607C12.4302 11.3242 11.4382 12.9488 9.82814 13.8278C8.21804 14.7069 6.23414 14.7069 4.62404 13.8278C3.01393 12.9488 2.02198 11.3242 2.02198 9.56607V1.91238H3.12179C3.48277 1.91238 3.81679 1.73007 3.99745 1.43429C4.17811 1.13851 4.17811 0.773878 3.99745 0.478096C3.81679 0.182314 3.48311 0 3.12213 0H1.01116C0.743203 0 0.485694 0.100719 0.29627 0.280164C0.106509 0.459291 0 0.702483 0 0.956192V9.56607C0.00235937 11.2123 0.631975 12.8025 1.77324 14.0452C2.9145 15.2879 4.49191 16.1 6.21526 16.3327V18.3665C6.21055 19.8805 6.62816 21.3687 7.42562 22.6812C8.22309 23.9937 9.37278 25.0844 10.7584 25.8424C12.144 26.6006 13.7167 27 15.3177 27C16.9187 27 18.4914 26.6006 19.877 25.8424C21.2627 25.0841 22.4124 23.9937 23.2102 22.6812C24.008 21.3687 24.4252 19.8802 24.4205 18.3665V16.1109C25.1644 15.9034 25.8176 15.4744 26.2824 14.8873C26.7475 14.3002 26.999 13.5869 27 12.8531ZM23.409 14.3368C22.9931 14.3368 22.594 14.1806 22.2998 13.9024C22.0055 13.6241 21.8404 13.2468 21.8404 12.8535C21.8404 12.4601 22.0055 12.0828 22.2998 11.8045C22.594 11.5263 22.9931 11.3701 23.409 11.3701C23.825 11.3701 24.224 11.5263 24.5183 11.8045C24.8125 12.0828 24.9777 12.4601 24.9777 12.8535C24.9773 13.2468 24.8118 13.6238 24.5176 13.9021C24.2237 14.18 23.8253 14.3362 23.409 14.3368Z" fill="white"/>
</svg>
