<svg width="18" height="18" viewBox="0 0 18 18" fill="none" xmlns="http://www.w3.org/2000/svg">
<path d="M18 8.56876C18 8.00545 17.7782 7.46255 17.3776 7.04565C16.9769 6.62875 16.4266 6.36803 15.8336 6.31448C15.2407 6.26093 14.6479 6.41817 14.1711 6.75582C13.6943 7.09325 13.3678 7.58685 13.255 8.13996C13.1422 8.69306 13.2518 9.26593 13.5617 9.74679C13.8718 10.2276 14.3603 10.5821 14.9319 10.7406V12.2439C14.9346 13.0291 14.7184 13.8013 14.3048 14.4821C13.8911 15.1631 13.295 15.7287 12.5764 16.122C11.8578 16.5156 11.0421 16.7225 10.2118 16.7225C9.38154 16.7225 8.56588 16.5154 7.84705 16.122C7.12845 15.7287 6.53209 15.1631 6.11864 14.4821C5.70519 13.8013 5.4888 13.0291 5.4915 12.2439V10.8885C6.6404 10.7336 7.69178 10.1922 8.45285 9.36367C9.21392 8.53518 9.63366 7.47509 9.63501 6.37759V0.637461C9.63501 0.468322 9.564 0.306194 9.43749 0.186776C9.31144 0.0671459 9.13999 0 8.96135 0H7.55404C7.31294 0 7.09048 0.121543 6.97004 0.318731C6.8496 0.515919 6.8496 0.759004 6.97004 0.956192C7.09048 1.15338 7.31294 1.27492 7.55382 1.27492H8.28679V6.37738C8.28679 7.54946 7.6255 8.6325 6.55209 9.21854C5.47869 9.80458 4.15609 9.80458 3.08269 9.21854C2.00929 8.6325 1.34799 7.54946 1.34799 6.37738V1.27492H2.08119C2.32185 1.27492 2.54453 1.15338 2.66497 0.956192C2.78541 0.759004 2.78541 0.515919 2.66497 0.318731C2.54453 0.121543 2.32207 0 2.08142 0H0.674107C0.495468 0 0.323796 0.0671459 0.197513 0.186776C0.0710059 0.306194 0 0.468322 0 0.637461V6.37738C0.00157292 7.47487 0.421317 8.53497 1.18216 9.36346C1.943 10.1919 2.99461 10.7334 4.14351 10.8885V12.2444C4.14036 13.2537 4.41877 14.2458 4.95042 15.1208C5.48206 15.9958 6.24852 16.723 7.17227 17.2282C8.09602 17.7338 9.14448 18 10.2118 18C11.2792 18 12.3276 17.7338 13.2514 17.2282C14.1751 16.7227 14.9416 15.9958 15.4734 15.1208C16.0053 14.2458 16.2835 13.2535 16.2804 12.2444V10.7406C16.7763 10.6023 17.2117 10.3163 17.5216 9.92485C17.8317 9.53345 17.9993 9.0579 18 8.56876ZM15.606 9.55788C15.3287 9.55788 15.0627 9.45377 14.8665 9.26826C14.6704 9.08276 14.5603 8.83118 14.5603 8.56897C14.5603 8.30676 14.6704 8.05517 14.8665 7.86967C15.0627 7.68417 15.3287 7.58005 15.606 7.58005C15.8833 7.58005 16.1494 7.68417 16.3455 7.86967C16.5417 8.05517 16.6518 8.30676 16.6518 8.56897C16.6516 8.83118 16.5412 9.08255 16.3451 9.26805C16.1491 9.45334 15.8835 9.55746 15.606 9.55788Z" fill="black"/>
</svg>
