<svg width="19" height="20" viewBox="0 0 19 20" fill="none" xmlns="http://www.w3.org/2000/svg">
<path d="M1.9413 19.4048H5.48522C6.01391 19.4048 6.51783 19.1983 6.89783 18.8183C7.26957 18.4465 7.48435 17.9343 7.48435 17.4056V15.3404C7.47609 14.82 7.65783 14.3161 7.99652 13.9196C8.33522 13.523 8.81435 13.267 9.32652 13.2091C9.88 13.1678 10.4252 13.3578 10.83 13.7378C11.2348 14.1178 11.4661 14.6465 11.4661 15.2V17.4139C11.4661 17.9426 11.6726 18.4465 12.0526 18.8265C12.4243 19.1983 12.9365 19.413 13.4652 19.413H17.0091C17.5378 19.413 18.0417 19.2065 18.4217 18.8265C18.7935 18.4548 19.0083 17.9426 19.0083 17.4139V8.10391C19.0083 7.36869 18.6861 6.66652 18.1243 6.19565L11.02 0.528696C10.5822 0.181739 10.0452 0 9.5 0C8.95478 0 8.40956 0.19 7.98 0.528696L0.883913 6.21217C0.322174 6.67478 0 7.37696 0 8.10391V17.4056C0 17.9261 0.206522 18.4217 0.561739 18.7935C0.925217 19.1652 1.42087 19.38 1.9413 19.3965V19.4048ZM1.28043 8.10391C1.27217 7.75696 1.42913 7.43478 1.69348 7.22L8.7813 1.55304C8.97956 1.39609 9.21913 1.31348 9.47522 1.31348C9.7313 1.31348 9.97087 1.39609 10.1691 1.55304L17.257 7.21174C17.5213 7.42652 17.6783 7.75696 17.67 8.09565V17.4056C17.67 17.5791 17.5957 17.7526 17.4717 17.8765C17.3478 18.0004 17.1826 18.0748 17.0009 18.0748H13.457C13.2835 18.0748 13.11 18.0004 12.9861 17.8765C12.8622 17.7526 12.7878 17.5874 12.7878 17.4056V15.1917C12.7878 14.3078 12.4326 13.4652 11.813 12.8456C11.1935 12.2261 10.3426 11.8709 9.46696 11.8709H9.22739C8.36826 11.9535 7.58348 12.3583 7.00522 13.0026C6.43522 13.647 6.1213 14.4813 6.13783 15.3404V17.4139C6.13783 17.5874 6.06348 17.7609 5.93957 17.8848C5.81565 18.0087 5.65043 18.083 5.4687 18.083H1.9413C1.76783 18.083 1.59435 18.0087 1.47043 17.8848C1.34652 17.7609 1.27217 17.5956 1.27217 17.4139V8.10391H1.28043Z" fill="black"/>
</svg>
