<svg width="24" height="25" viewBox="0 0 24 25" fill="none" xmlns="http://www.w3.org/2000/svg">
<path fill-rule="evenodd" clip-rule="evenodd" d="M13.2976 1.86469C13.2976 2.8816 12.4865 3.72937 11.5135 3.72937C10.5406 3.72937 9.72946 2.8816 9.72946 1.86469C9.72946 0.847772 10.5406 0 11.5135 0C12.4865 0 13.2976 0.847772 13.2976 1.86469ZM11.5135 5.25371C10.4597 5.25371 9.64855 6.10148 9.64855 7.20297C9.64855 8.30446 10.4597 9.15223 11.5135 9.15223C12.5674 9.15223 13.3785 8.30446 13.3785 7.20297C13.3785 6.10148 12.5674 5.25371 11.5135 5.25371ZM11.5135 10.5074C10.4597 10.5074 9.56763 11.4398 9.56763 12.5413C9.56763 13.6427 10.4597 14.5751 11.5135 14.5751C12.5674 14.5751 13.4594 13.6427 13.4594 12.5413C13.4594 11.4398 12.5674 10.5074 11.5135 10.5074ZM11.5135 15.8457C10.4597 15.8457 9.64855 16.6935 9.64855 17.795C9.64855 18.8965 10.4597 19.7442 11.5135 19.7442C12.5674 19.7442 13.3785 18.8965 13.3785 17.795C13.3785 16.7781 12.5674 15.8457 11.5135 15.8457ZM11.5135 21.2686C10.5406 21.2686 9.72946 22.1163 9.72946 23.1333C9.72946 24.1502 10.5406 24.9979 11.5135 24.9979C12.4865 24.9979 13.2976 24.1502 13.2976 23.1333C13.2976 22.1163 12.4865 21.2686 11.5135 21.2686ZM16.4592 5C15.3244 5 14.3515 6.01691 14.3515 7.20297C14.3515 8.38903 15.3244 9.40594 16.4592 9.40594C17.5939 9.40594 18.5669 8.38903 18.5669 7.20297C18.5669 6.01691 17.5939 5 16.4592 5ZM16.4592 10.2537C15.2435 10.2537 14.2705 11.2706 14.2705 12.5413C14.2705 13.8119 15.2435 14.8288 16.4592 14.8288C17.6749 14.8288 18.6478 13.8119 18.6478 12.5413C18.6478 11.2706 17.6749 10.2537 16.4592 10.2537ZM16.4592 15.592C15.3244 15.592 14.3515 16.6089 14.3515 17.795C14.3515 18.981 15.3244 19.9979 16.4592 19.9979C17.5939 19.9979 18.5669 18.981 18.5669 17.795C18.5669 16.6089 17.5939 15.592 16.4592 15.592ZM21.5666 9.99794C20.27 9.99794 19.1333 11.0994 19.1333 12.5413C19.1333 13.8965 20.1872 15.0846 21.5666 15.0846C22.9461 15.0846 24 13.9831 24 12.5413C23.9191 11.1015 22.8652 9.99794 21.5666 9.99794ZM6.48697 5.50949C5.59493 5.50949 4.86473 6.27269 4.86473 7.20503C4.86473 8.13738 5.59493 8.90058 6.48697 8.90058C7.379 8.90058 8.1092 8.13738 8.1092 7.20503C8.1092 6.27269 7.379 5.50949 6.48697 5.50949ZM6.48697 10.7632C5.51402 10.7632 4.78382 11.5264 4.78382 12.5433C4.78382 13.5602 5.51402 14.3234 6.48697 14.3234C7.45991 14.3234 8.19012 13.5602 8.19012 12.5433C8.19012 11.5264 7.45991 10.7632 6.48697 10.7632ZM6.48697 16.1015C5.59493 16.1015 4.86473 16.8647 4.86473 17.797C4.86473 18.7294 5.59493 19.4926 6.48697 19.4926C7.379 19.4926 8.1092 18.7294 8.1092 17.797C8.1092 16.8647 7.379 16.1015 6.48697 16.1015ZM1.46041 11.0169C0.649289 11.0169 0 11.6955 0 12.5433C0 13.3911 0.649289 14.0697 1.46041 14.0697C2.27152 14.0697 2.92081 13.3911 2.92081 12.5433C2.92081 11.6955 2.27152 11.0169 1.46041 11.0169Z" fill="#00AEB6"/>
</svg>
