<svg width="25" height="21" viewBox="0 0 25 21" fill="none" xmlns="http://www.w3.org/2000/svg">
<g clip-path="url(#clip0_11_1536)">
<path d="M2.39194 11.109L3.65141 12.3585L6.37145 9.6705L5.12256 8.421L4.55103 7.854C4.09593 7.4025 3.8525 6.8145 3.8525 6.174C3.8525 5.6175 4.04301 5.1135 4.37111 4.7145C4.81563 4.158 5.49299 3.801 6.25503 3.801C6.90064 3.801 7.49333 4.053 7.95902 4.5045L8.51996 5.04L9.77943 6.3L12.5101 3.612L11.24 2.3625L10.6685 1.8165C9.53601 0.693 7.98019 0 6.25503 0C2.79412 0 0 2.772 0 6.1845C0 7.035 0.169341 7.8435 0.486855 8.589C0.804369 9.3345 1.25947 9.996 1.831 10.5525L2.39194 11.109Z" fill="#EA4335"/>
<path d="M8.62575 12.831L12.51 8.9985L9.77939 6.3L6.3714 9.6705L3.65137 12.3585L5.11193 13.818L6.3714 15.057L7.6838 13.755" fill="#FBBC04"/>
<path d="M15.2194 18.438L21.358 12.3585L18.6274 9.6705L12.4994 15.7395L9.09138 12.369L6.37134 15.057L9.77932 18.438L9.76874 18.4485L12.4994 21L15.23 18.438H15.2194Z" fill="#34A853"/>
<path d="M23.168 10.5525C24.4381 9.2925 25.1684 7.3605 24.9673 5.4075C24.671 2.4465 22.1943 0.220503 19.1885 0.0210034C17.294 -0.104997 15.5583 0.598503 14.3306 1.8165L9.77954 6.3L12.4996 8.9985L17.0506 4.5045C17.601 3.969 18.363 3.717 19.1462 3.843C20.1623 4.0005 20.9878 4.83 21.1254 5.838C21.2312 6.594 20.9772 7.329 20.4374 7.8645L18.6276 9.6705L21.3582 12.3585L23.168 10.5525Z" fill="#4285F4"/>
</g>
<defs>
<clipPath id="clip0_11_1536">
<rect width="25" height="21" fill="white"/>
</clipPath>
</defs>
</svg>
