<svg width="12" height="16" viewBox="0 0 12 16" fill="none" xmlns="http://www.w3.org/2000/svg">
<path d="M5.625 0.567627C2.51719 0.567627 0 2.95763 0 5.87305C0 6.92388 0.309375 8.06442 0.885938 8.91662L5.2875 15.3946C5.35781 15.4971 5.49141 15.5612 5.625 15.5612C5.75859 15.5612 5.89219 15.4971 5.9625 15.3946L10.3641 8.91662C10.9406 8.07083 11.25 6.92388 11.25 5.87305C11.25 2.95763 8.73281 0.567627 5.625 0.567627ZM5.625 1.29808C8.28281 1.29808 10.4484 3.33567 10.4484 5.87305C10.4484 6.78933 10.1531 7.84016 9.68203 8.53217L5.625 14.5168L1.56797 8.53858C1.09687 7.84657 0.801562 6.79573 0.801562 5.87946C0.801562 3.33567 2.96719 1.29808 5.625 1.29808ZM5.625 3.13063C4.07812 3.13063 2.8125 4.28399 2.8125 5.69364C2.8125 7.1033 4.07812 8.25665 5.625 8.25665C7.17188 8.25665 8.4375 7.1033 8.4375 5.69364C8.4375 4.28399 7.17188 3.13063 5.625 3.13063ZM5.625 3.86109C6.73594 3.86109 7.63594 4.67485 7.63594 5.69364C7.63594 6.71244 6.74297 7.52619 5.625 7.52619C4.50703 7.52619 3.61406 6.71244 3.61406 5.69364C3.61406 4.67485 4.50703 3.86109 5.625 3.86109Z" fill="black"/>
</svg>
