<svg width="19" height="24" viewBox="0 0 19 24" fill="none" xmlns="http://www.w3.org/2000/svg">
<g clip-path="url(#clip0_11_1546)">
<path d="M9.5 4.25771C4.25936 4.25771 0 8.68348 0 14.1289C0 19.5742 4.25936 24 9.5 24C14.7406 24 19 19.5742 19 14.1289C19 8.68348 14.7406 4.25771 9.5 4.25771ZM9.5 21.8712C5.3916 21.8712 2.04881 18.3978 2.04881 14.1289C2.04881 9.85995 5.3916 6.38656 9.5 6.38656C13.6084 6.38656 16.9512 9.85995 16.9512 14.1289C16.9512 18.3978 13.6084 21.8712 9.5 21.8712Z" fill="#1D1D1B"/>
<path d="M14.2554 0H4.75537V2.12885H14.2554V0Z" fill="#1D1D1B"/>
</g>
<defs>
<clipPath id="clip0_11_1546">
<rect width="19" height="24" fill="white"/>
</clipPath>
</defs>
</svg>
