<svg width="17" height="17" viewBox="0 0 17 17" fill="none" xmlns="http://www.w3.org/2000/svg">
<path d="M16.343 11.8764L14.3178 9.74899C14.0439 9.46021 13.6715 9.29857 13.2835 9.30017C12.8958 9.29886 12.5238 9.4605 12.2502 9.74899L10.9987 11.0635C10.8954 11.1762 10.7598 11.2504 10.6127 11.275C10.4656 11.2994 10.3148 11.273 10.1833 11.1992C9.29574 10.7515 8.47214 10.1757 7.73664 9.48814C7.08189 8.71532 6.53352 7.84997 6.10745 6.91726C6.03723 6.77934 6.01174 6.62091 6.03501 6.46626C6.05842 6.31175 6.1292 6.16932 6.23668 6.06093L7.48814 4.74647C7.76185 4.45841 7.91546 4.06792 7.91546 3.661C7.91546 3.25408 7.76171 2.86359 7.48814 2.57553L5.46309 0.448678C5.18884 0.161344 4.81734 0 4.43006 0C4.04278 0 3.67115 0.161344 3.3969 0.448678L1.34151 2.60667C0.672771 3.30907 0.107085 4.67998 1.20965 7.22104C1.92451 8.86837 3.22902 10.7373 4.8848 12.4857C6.54792 14.223 8.32739 15.5932 9.89563 16.344C10.885 16.8176 11.687 16.9981 12.3372 16.9981C12.6966 17.0121 13.0551 16.9489 13.3906 16.8126C13.7262 16.6763 14.0318 16.4697 14.2888 16.2055L16.343 14.0466C16.6165 13.7586 16.77 13.3684 16.77 12.9615C16.77 12.5545 16.6164 12.1645 16.343 11.8763V11.8764ZM15.8075 13.4843L13.7521 15.6422C12.8472 16.5926 11.3266 16.1537 10.2099 15.6191C8.72146 14.9066 7.02011 13.5932 5.42084 11.9224C3.82864 10.2412 2.57815 8.45417 1.90082 6.89064C1.39179 5.71773 0.974589 4.11986 1.8788 3.17013L3.93225 1.01127C4.06425 0.87306 4.24293 0.795516 4.42923 0.795516C4.61553 0.795516 4.79421 0.873205 4.92622 1.01127L6.95196 3.13944C7.08327 3.27823 7.15696 3.46576 7.15696 3.66144C7.15696 3.85712 7.08327 4.04465 6.95196 4.18344L5.7005 5.4979C5.47957 5.72501 5.33414 6.02063 5.28552 6.34128C5.2369 6.66193 5.28787 6.99044 5.43068 7.27836C5.8904 8.28192 6.48268 9.21201 7.1902 10.0414C7.19644 10.0485 7.20309 10.0555 7.21001 10.0622C7.99953 10.8054 8.88532 11.4276 9.84064 11.9103C10.1148 12.0603 10.4275 12.1139 10.7328 12.0628C11.0381 12.0117 11.3197 11.859 11.5359 11.6269L12.7874 10.3125C12.9195 10.1745 13.0982 10.0971 13.2843 10.0971C13.4705 10.0971 13.6492 10.1745 13.7813 10.3125L15.8075 12.4399C15.9391 12.5785 16.013 12.7664 16.013 12.9622C16.013 13.158 15.9391 13.3458 15.8075 13.4845V13.4843Z" fill="black" stroke="black" stroke-width="0.25"/>
</svg>
