<svg width="30" height="30" viewBox="0 0 30 30" fill="none" xmlns="http://www.w3.org/2000/svg">
<mask id="mask0_11_1550" style="mask-type:luminance" maskUnits="userSpaceOnUse" x="0" y="0" width="30" height="30">
<path d="M14.6582 29.7167C22.671 29.7167 29.1666 23.2211 29.1666 15.2083C29.1666 7.1956 22.671 0.699997 14.6582 0.699997C6.6455 0.699997 0.149902 7.1956 0.149902 15.2083C0.149902 23.2211 6.6455 29.7167 14.6582 29.7167Z" fill="white"/>
</mask>
<g mask="url(#mask0_11_1550)">
<path d="M30 3.33333V26.6667C30 27.5833 29.625 28.4167 29.025 29.025C28.4167 29.625 27.5833 30 26.6667 30H3.33333C1.49167 30 0 28.5083 0 26.6667V3.33333C0 2.41667 0.375 1.58333 0.975 0.975C1.58333 0.375 2.41667 0 3.33333 0H26.6667C28.5083 0 30 1.49167 30 3.33333Z" fill="#8C9EFF"/>
<path d="M30 3.33333V5L25 0H26.6667C28.5083 0 30 1.49167 30 3.33333Z" fill="#1DE9B6"/>
<path d="M30 5V10L20 0H25L30 5Z" fill="#1EE4BC"/>
<path d="M30 10V15L15 0H20L30 10Z" fill="#1FE0C2"/>
<path d="M30 15V20L10 0H15L30 15Z" fill="#20DBC7"/>
<path d="M30 20V25L5 0H10L30 20Z" fill="#21D6CD"/>
<path d="M30.0001 25V26.6667C30.0001 27.5833 29.6251 28.4167 29.0251 29.025L0.975098 0.975C1.58343 0.375 2.41676 0 3.33343 0H5.0001L30.0001 25Z" fill="#22D2D3"/>
<path d="M29.025 29.025C28.4167 29.625 27.5833 30 26.6667 30H25L0 5.00001V3.33334C0 2.41667 0.375 1.58334 0.975 0.975006L29.025 29.025Z" fill="#24CDD9"/>
<path d="M25 30H20L0 10V5L25 30Z" fill="#25C9DF"/>
<path d="M20 30H15L0 15V10L20 30Z" fill="#26C4E5"/>
<path d="M15 30H10L0 20V15L15 30Z" fill="#27BFEA"/>
<path d="M10 30H5L0 25V20L10 30Z" fill="#28BBF0"/>
<path d="M5 30H3.33333C1.49167 30 0 28.5083 0 26.6667V25L5 30Z" fill="#29B6F6"/>
<path d="M15.3583 25.8333C14.1416 25.8333 12.625 25.6833 11.4083 24.925C10.1916 24.1667 7.00832 21.7333 6.54998 21.4333C6.09165 21.1333 5.18331 20.2167 6.54998 18.85C7.91665 17.4833 10.95 14.1417 11.4083 13.6917C11.8666 13.2417 12.625 12.7833 13.9916 13.0833C14.1416 12.475 14.1416 10.9583 13.3833 10.05C12.475 10.6583 11.1083 13.3917 9.59165 13.3917C8.37498 13.3917 7.61665 12.6333 7.31665 12.175C7.77498 12.325 8.22498 12.175 8.98331 11.2667C9.74165 10.3583 10.65 9.59999 13.0833 9.74999C12.625 8.84166 12.625 8.23333 12.625 7.62499C12.625 7.01666 13.3833 4.59166 15.9666 4.59166C18.2416 4.59166 19.3083 6.41666 19.3083 7.01666V8.84166C19.3083 8.99166 19.6083 8.99166 19.6083 9.29999C19.6083 9.60833 19.6083 10.6667 19.3083 11.275C19.1583 11.575 18.85 11.7333 18.55 11.7333H17.7916L17.3333 14.3167C17.3333 14.3167 19.3083 15.6833 19.3083 17.35V22.2083L22.3416 19.9333C22.1916 19.6333 21.7333 18.5667 22.1916 17.9583C22.65 17.35 23.2583 17.2 23.5583 17.2C23.8583 17.2 24.1666 17.5 24.1666 17.9583V19.9333C24.1666 20.2333 24.1666 20.3917 23.8666 20.6917C23.5666 20.9917 20.525 24.1833 19.9166 24.6417C19.3083 25.1 17.6416 25.8583 15.3666 25.8583L15.3583 25.8333ZM12.0166 22.8L11.1083 18.25L8.98331 19.9167L12.0166 22.8Z" fill="white"/>
</g>
</svg>
