<svg width="17" height="20" viewBox="0 0 17 20" fill="none" xmlns="http://www.w3.org/2000/svg">
<g clip-path="url(#clip0_307_3035)">
<path fill-rule="evenodd" clip-rule="evenodd" d="M3.96405 4.53031C3.96405 2.02732 5.99703 0 8.50003 0C11.003 0 13.0303 2.02732 13.0303 4.53031C13.0303 7.03331 11.003 9.06063 8.50003 9.06063C5.99703 9.06063 3.96405 7.03331 3.96405 4.53031ZM8.50003 1.13258C6.61995 1.13258 5.10229 2.6559 5.10229 4.53031C5.10229 6.40473 6.62561 7.92805 8.50003 7.92805C10.3744 7.92805 11.8978 6.40473 11.8978 4.53031C11.8978 2.6559 10.3744 1.13258 8.50003 1.13258Z" fill="black"/>
<path d="M9.0663 14.8878L12.1696 9.71757C13.2568 10.0234 14.1403 10.4934 14.7632 11.1503C15.4484 11.8695 15.8674 12.8548 15.8674 14.2196V19.2652C15.8674 19.5767 16.1223 19.8315 16.4337 19.8315C16.7452 19.8315 17 19.5767 17 19.2652V14.2196C17 12.6 16.4904 11.3258 15.5843 10.3688C14.6896 9.42876 13.4494 8.84548 12.045 8.51704C11.9997 8.50571 11.9487 8.50005 11.9034 8.50005C11.8355 8.50005 11.7732 8.51137 11.7165 8.53402C11.6203 8.568 11.5353 8.62463 11.4674 8.70957C11.4504 8.73223 11.4277 8.76054 11.4164 8.78319L8.50568 13.6306L5.58929 8.77187C5.48169 8.59632 5.29482 8.49438 5.10228 8.49438C5.05698 8.49438 5.00601 8.50005 4.96071 8.51137C3.56197 8.83982 2.31614 9.4231 1.4214 10.3631C0.509674 11.3202 0.00567627 12.5943 0.00567627 14.2139V19.2595C0.00567627 19.571 0.260506 19.8258 0.571965 19.8258C0.883424 19.8258 1.13825 19.571 1.13825 19.2595V14.2139C1.13825 12.8491 1.55731 11.8638 2.24252 11.1446C2.86544 10.4934 3.74885 10.0177 4.83612 9.71191L7.93939 14.8821V19.2595C7.93939 19.571 8.19422 19.8258 8.50568 19.8258C8.81713 19.8258 9.07197 19.571 9.07197 19.2595V14.8821L9.0663 14.8878Z" fill="black"/>
<path d="M13.0303 14.7291C13.0303 14.4177 12.7755 14.1628 12.464 14.1628C12.1525 14.1628 11.8977 14.4177 11.8977 14.7291V15.2954H11.3314C11.02 15.2954 10.7651 15.5503 10.7651 15.8617C10.7651 16.1732 11.02 16.428 11.3314 16.428H11.8977V16.9943C11.8977 17.3057 12.1525 17.5606 12.464 17.5606C12.7755 17.5606 13.0303 17.3057 13.0303 16.9943V16.428H13.5966C13.908 16.428 14.1629 16.1732 14.1629 15.8617C14.1629 15.5503 13.908 15.2954 13.5966 15.2954H13.0303V14.7291Z" fill="black"/>
</g>
<defs>
<clipPath id="clip0_307_3035">
<rect width="17" height="19.8314" fill="white"/>
</clipPath>
</defs>
</svg>
