<svg width="16" height="20" viewBox="0 0 16 20" fill="none" xmlns="http://www.w3.org/2000/svg">
<path d="M16 18.6662C16 19.1556 15.6 19.5556 15.1106 19.5556C14.6212 19.5556 14.2212 19.1556 14.2212 18.6662C14.2212 15.2313 11.4353 12.4457 8 12.4457C4.56471 12.4457 1.77882 15.2313 1.77882 18.6662C1.77882 19.1556 1.37882 19.5556 0.889412 19.5556C0.4 19.5556 0 19.1556 0 18.6662C0 14.2479 3.58118 10.6671 8 10.6671C12.4188 10.6671 16 14.2479 16 18.6662ZM8 9.77778C5.29882 9.77778 3.11059 7.58978 3.11059 4.88889C3.11059 2.188 5.29882 0 8 0C10.7012 0 12.8894 2.188 12.8894 4.88889C12.8894 7.58978 10.7012 9.77778 8 9.77778ZM8 7.99915C9.71765 7.99915 11.1106 6.60635 11.1106 4.88889C11.1106 3.17143 9.71765 1.77863 8 1.77863C6.28235 1.77863 4.88941 3.17143 4.88941 4.88889C4.88941 6.60635 6.28235 7.99915 8 7.99915Z" fill="black"/>
</svg>
