<svg width="226" height="35" viewBox="0 0 226 35" fill="none" xmlns="http://www.w3.org/2000/svg">
<path d="M39.9564 33.6429H31.984L24.9079 10.2955L17.8318 33.6429H9.85937L0 0.956543H6.84023L13.9399 26.0316L21.3226 0.956543H28.611L35.9938 26.0316L43.0935 0.956543H49.8157L39.9564 33.6429Z" fill="#4C4A96"/>
<path d="M71.8694 33.6432H65.8547V31.1451C64.1682 33.1996 61.8921 34.2269 59.0145 34.2269C55.8538 34.2269 53.2238 33.0946 51.1128 30.8182C49.0018 28.5418 47.9521 25.7168 47.9521 22.3198C47.9521 18.9227 49.0018 16.0977 51.1128 13.8213C53.2238 11.5449 55.8538 10.4126 59.0145 10.4126C61.9039 10.4126 64.1918 11.4516 65.8547 13.5178V11.0196H71.8694V33.6432ZM60.1466 16.086C58.3894 16.086 56.9624 16.6814 55.8774 17.8721C54.7924 19.0628 54.2499 20.5454 54.2499 22.3198C54.2499 24.0942 54.7924 25.5767 55.8774 26.7674C56.9624 27.9582 58.3894 28.5535 60.1466 28.5535C61.9039 28.5535 63.3073 27.9698 64.4041 26.7908C65.5009 25.6117 66.0434 24.1292 66.0434 22.3198C66.0434 20.5103 65.5009 19.0278 64.4041 17.8487C63.3073 16.6697 61.8921 16.086 60.1466 16.086Z" fill="#4C4A96"/>
<path d="M93.0272 16.4365H84.7481V24.7015C84.7481 26.0206 85.0666 27.0012 85.6916 27.6199C86.3167 28.2386 87.1422 28.5538 88.1682 28.5538C89.3948 28.5538 90.8218 28.0635 92.4611 27.0829L94.7254 31.8458C92.4139 33.4334 89.8901 34.2272 87.154 34.2272C84.4179 34.2272 82.1889 33.4568 80.7501 31.9275C79.3113 30.3983 78.5919 28.1452 78.5919 25.1918V16.4365H74.1812V11.0199H78.5919V4.2959H84.7481V11.0199H93.0272V16.4365Z" fill="#4C4A96"/>
<path d="M107.038 10.4126C108.96 10.4126 110.694 10.7862 112.262 11.5216C113.831 12.257 115.14 13.3193 116.19 14.6852L111.755 18.3507C110.328 16.8448 108.701 16.086 106.873 16.086C105.257 16.086 103.889 16.658 102.792 17.8137C101.695 18.9694 101.141 20.4636 101.141 22.3198C101.141 24.1759 101.684 25.6701 102.78 26.8258C103.877 27.9815 105.233 28.5535 106.849 28.5535C108.736 28.5535 110.399 27.7947 111.826 26.2655L116.213 29.9777C113.961 32.8144 110.906 34.2269 107.038 34.2269C103.417 34.2269 100.492 33.1062 98.2399 30.8649C95.9873 28.6236 94.8669 25.7752 94.8669 22.3198C94.8669 18.8644 95.9873 16.016 98.2399 13.7746C100.492 11.5333 103.417 10.4126 107.038 10.4126Z" fill="#4C4A96"/>
<path d="M124.917 13.4481C126.379 11.4285 128.561 10.4129 131.474 10.4129C134.08 10.4129 136.215 11.2301 137.878 12.8644C139.541 14.4987 140.366 16.6233 140.366 19.2382V33.6436H134.21V21.1994C134.21 19.5651 133.821 18.316 133.054 17.4405C132.288 16.565 131.179 16.133 129.752 16.133C128.325 16.133 127.193 16.5766 126.285 17.4522C125.377 18.3277 124.917 19.6001 124.917 21.2461V33.6436H118.76V0H124.917V13.4481Z" fill="#4C4A96"/>
<path d="M158.882 0.956543C164.036 0.956543 168.187 2.45077 171.324 5.43924C174.461 8.4277 176.03 12.3851 176.03 17.2997C176.03 22.2143 174.461 26.1717 171.324 29.1602C168.187 32.1486 164.036 33.6429 158.882 33.6429H145.272V0.956543H158.882ZM151.853 7.05021V27.5492H158.811C162.173 27.5492 164.744 26.6153 166.501 24.7358C168.258 22.8564 169.143 20.3816 169.143 17.2997C169.143 14.2179 168.258 11.6963 166.501 9.84022C164.744 7.98411 162.173 7.05021 158.811 7.05021H151.853Z" fill="white"/>
<path d="M190.536 10.4126C194.086 10.4126 197.046 11.5449 199.393 13.8096C201.74 16.0743 202.919 18.911 202.919 22.3198C202.919 25.7285 201.74 28.5652 199.393 30.8299C197.046 33.0946 194.086 34.2269 190.536 34.2269C186.986 34.2269 184.061 33.0946 181.714 30.8299C179.368 28.5652 178.2 25.7285 178.2 22.3198C178.2 18.911 179.368 16.0743 181.714 13.8096C184.061 11.5449 186.998 10.4126 190.536 10.4126ZM190.536 16.086C188.791 16.086 187.34 16.6697 186.196 17.8371C185.052 19.0044 184.474 20.4987 184.474 22.3198C184.474 24.1409 185.052 25.6351 186.196 26.8025C187.34 27.9698 188.791 28.5535 190.536 28.5535C192.281 28.5535 193.756 27.9698 194.9 26.8025C196.044 25.6351 196.621 24.1409 196.621 22.3198C196.621 20.4987 196.044 19.0044 194.9 17.8371C193.756 16.6697 192.293 16.086 190.536 16.086Z" fill="white"/>
<path d="M216.812 10.4126C218.734 10.4126 220.468 10.7862 222.037 11.5216C223.605 12.257 224.914 13.3193 225.964 14.6852L221.529 18.3507C220.102 16.8448 218.475 16.086 216.647 16.086C215.031 16.086 213.663 16.658 212.566 17.8137C211.47 18.9694 210.915 20.4636 210.915 22.3198C210.915 24.1759 211.458 25.6701 212.555 26.8258C213.651 27.9815 215.008 28.5535 216.623 28.5535C218.51 28.5535 220.173 27.7947 221.6 26.2655L225.987 29.9777C223.735 32.8144 220.68 34.2269 216.812 34.2269C213.191 34.2269 210.267 33.1062 208.014 30.8649C205.761 28.6236 204.641 25.7752 204.641 22.3198C204.641 18.8644 205.761 16.016 208.014 13.7746C210.267 11.5333 213.191 10.4126 216.812 10.4126Z" fill="white"/>
</svg>
