<svg width="101" height="16" viewBox="0 0 101 16" fill="none" xmlns="http://www.w3.org/2000/svg">
<path d="M17.8576 15.0362H14.2945L11.132 4.60158L7.96952 15.0362H4.40643L0 0.427734H3.05709L6.23014 11.6345L9.52969 0.427734H12.7871L16.0866 11.6345L19.2597 0.427734H22.2641L17.8576 15.0362Z" fill="#4C4A96"/>
<path d="M32.1206 15.0362H29.4324V13.9197C28.6787 14.838 27.6614 15.2971 26.3753 15.2971C24.9627 15.2971 23.7873 14.791 22.8439 13.7737C21.9004 12.7563 21.4313 11.4937 21.4313 9.97546C21.4313 8.45722 21.9004 7.19463 22.8439 6.17726C23.7873 5.15989 24.9627 4.65381 26.3753 4.65381C27.6667 4.65381 28.6892 5.11815 29.4324 6.04161V4.92511H32.1206V15.0362ZM26.8813 7.18941C26.096 7.18941 25.4582 7.4555 24.9733 7.98766C24.4884 8.51982 24.2459 9.18243 24.2459 9.97546C24.2459 10.7685 24.4884 11.4311 24.9733 11.9632C25.4582 12.4954 26.096 12.7615 26.8813 12.7615C27.6667 12.7615 28.2939 12.5006 28.7841 11.9737C29.2743 11.4467 29.5168 10.7841 29.5168 9.97546C29.5168 9.16678 29.2743 8.50418 28.7841 7.97723C28.2939 7.45028 27.6614 7.18941 26.8813 7.18941Z" fill="#4C4A96"/>
<path d="M41.5764 7.34591H37.8763V11.0398C37.8763 11.6293 38.0186 12.0676 38.298 12.3441C38.5773 12.6206 38.9463 12.7615 39.4049 12.7615C39.953 12.7615 40.5908 12.5424 41.3234 12.1041L42.3354 14.2327C41.3024 14.9423 40.1744 15.2971 38.9516 15.2971C37.7287 15.2971 36.7325 14.9527 36.0895 14.2693C35.4464 13.5858 35.1249 12.5789 35.1249 11.2589V7.34591H33.1536V4.92508H35.1249V1.91992H37.8763V4.92508H41.5764V7.34591Z" fill="#4C4A96"/>
<path d="M47.8383 4.65381C48.6974 4.65381 49.4722 4.82076 50.1732 5.14945C50.8743 5.47814 51.4593 5.95291 51.9284 6.56334L49.9466 8.20157C49.3088 7.52854 48.5814 7.18941 47.7645 7.18941C47.0424 7.18941 46.4309 7.44507 45.9408 7.96158C45.4506 8.47809 45.2028 9.14591 45.2028 9.97546C45.2028 10.805 45.4453 11.4728 45.9355 11.9893C46.4257 12.5059 47.0318 12.7615 47.7539 12.7615C48.5973 12.7615 49.3404 12.4224 49.9782 11.7389L51.939 13.398C50.9322 14.6658 49.5671 15.2971 47.8383 15.2971C46.2201 15.2971 44.9129 14.7962 43.9062 13.7945C42.8995 12.7928 42.3987 11.5198 42.3987 9.97546C42.3987 8.43114 42.8995 7.15811 43.9062 6.15639C44.9129 5.15467 46.2201 4.65381 47.8383 4.65381Z" fill="#4C4A96"/>
<path d="M55.8288 6.01033C56.4824 5.10774 57.4575 4.65383 58.7594 4.65383C59.9243 4.65383 60.8783 5.01904 61.6215 5.74946C62.3647 6.47989 62.7336 7.42944 62.7336 8.59811V15.0363H59.9823V9.47462C59.9823 8.74419 59.8083 8.18594 59.4657 7.79465C59.1231 7.40335 58.6277 7.21031 57.9899 7.21031C57.3521 7.21031 56.8461 7.40857 56.4403 7.79987C56.0344 8.19116 55.8288 8.75985 55.8288 9.49549V15.0363H53.0775V0H55.8288V6.01033Z" fill="#4C4A96"/>
<path d="M71.0089 0.427734C73.3123 0.427734 75.1676 1.09555 76.5696 2.43118C77.9717 3.76681 78.6727 5.53547 78.6727 7.73196C78.6727 9.92844 77.9717 11.6971 76.5696 13.0327C75.1676 14.3684 73.3123 15.0362 71.0089 15.0362H64.9263V0.427734H71.0089ZM67.8675 3.15117V12.3127H70.9773C72.4795 12.3127 73.6285 11.8954 74.4139 11.0554C75.1992 10.2154 75.5945 9.10932 75.5945 7.73196C75.5945 6.35459 75.1992 5.22765 74.4139 4.3981C73.6285 3.56855 72.4795 3.15117 70.9773 3.15117H67.8675Z" fill="#00B8E2"/>
<path d="M85.1558 4.65381C86.7423 4.65381 88.0653 5.15988 89.1142 6.17204C90.1631 7.1842 90.6902 8.45201 90.6902 9.97546C90.6902 11.4989 90.1631 12.7667 89.1142 13.7789C88.0653 14.791 86.7423 15.2971 85.1558 15.2971C83.5693 15.2971 82.2621 14.791 81.2132 13.7789C80.1643 12.7667 79.6425 11.4989 79.6425 9.97546C79.6425 8.45201 80.1643 7.1842 81.2132 6.17204C82.2621 5.15988 83.5746 4.65381 85.1558 4.65381ZM85.1558 7.18941C84.3757 7.18941 83.7274 7.45028 83.2162 7.97201C82.7049 8.49374 82.4466 9.16156 82.4466 9.97546C82.4466 10.7894 82.7049 11.4572 83.2162 11.9789C83.7274 12.5006 84.3757 12.7615 85.1558 12.7615C85.9359 12.7615 86.5948 12.5006 87.106 11.9789C87.6173 11.4572 87.8756 10.7894 87.8756 9.97546C87.8756 9.16156 87.6173 8.49374 87.106 7.97201C86.5948 7.45028 85.9412 7.18941 85.1558 7.18941Z" fill="#00B8E2"/>
<path d="M96.8993 4.65381C97.7584 4.65381 98.5333 4.82076 99.2343 5.14945C99.9353 5.47814 100.52 5.95291 100.989 6.56334L99.0076 8.20157C98.3699 7.52854 97.6425 7.18941 96.8255 7.18941C96.1034 7.18941 95.492 7.44507 95.0018 7.96158C94.5116 8.47809 94.2639 9.14591 94.2639 9.97546C94.2639 10.805 94.5063 11.4728 94.9965 11.9893C95.4867 12.5059 96.0928 12.7615 96.815 12.7615C97.6583 12.7615 98.4015 12.4224 99.0393 11.7389L101 13.398C99.9933 14.6658 98.6281 15.2971 96.8993 15.2971C95.2811 15.2971 93.974 14.7962 92.9672 13.7945C91.9605 12.7928 91.4598 11.5198 91.4598 9.97546C91.4598 8.43114 91.9605 7.15811 92.9672 6.15639C93.974 5.15467 95.2811 4.65381 96.8993 4.65381Z" fill="#00B8E2"/>
</svg>
